<svg width="14" height="14" viewBox="0 0 14 14" fill="none" xmlns="http://www.w3.org/2000/svg">
<g clip-path="url(#clip0_111_624)">
<path d="M1.24251 7.74209C1.49709 8.34112 1.86716 8.88413 2.33159 9.34013C2.79603 9.79614 3.34573 10.1562 3.94932 10.3998C4.55291 10.6433 5.19856 10.7656 5.84941 10.7596C6.50025 10.7537 7.14355 10.6196 7.74258 10.365C8.3416 10.1104 8.88461 9.74035 9.34062 9.27591C9.79662 8.81148 10.1567 8.26177 10.4002 7.65818C10.6438 7.0546 10.7661 6.40895 10.7601 5.7581C10.7541 5.10725 10.62 4.46395 10.3655 3.86493C10.1109 3.2659 9.74082 2.72289 9.27638 2.26688C8.81195 1.81088 8.26225 1.45082 7.65866 1.20726C7.05507 0.963702 6.40942 0.841413 5.75857 0.847376C5.10773 0.853339 4.46442 0.987439 3.8654 1.24202C3.26638 1.4966 2.72336 1.86667 2.26736 2.33111C1.81136 2.79554 1.4513 3.34525 1.20774 3.94883C0.964187 4.55242 0.841899 5.19807 0.847864 5.84892C0.85383 6.49977 0.987931 7.14307 1.24251 7.74209Z" stroke="#A6A6A6" stroke-linecap="round" stroke-linejoin="round"/>
<path d="M9.30835 9.3078L13.1523 13.1523" stroke="#A6A6A6" stroke-linecap="round" stroke-linejoin="round"/>
</g>
<defs>
<clipPath id="clip0_111_624">
<rect width="14" height="14" fill="white"/>
</clipPath>
</defs>
</svg>
