<svg width="26" height="30" viewBox="0 0 26 30" fill="none" xmlns="http://www.w3.org/2000/svg">
<g clip-path="url(#clip0_111_606)">
<path fill-rule="evenodd" clip-rule="evenodd" d="M0.270999 0.390869C3.33949 0.425029 5.70143 1.72636 7.35683 4.2949C7.77334 4.97183 8.05959 5.70057 8.2157 6.48117C8.31797 7.12813 8.38304 7.7788 8.41092 8.43319C8.41474 12.5847 8.44081 16.736 8.48897 20.8871C8.53735 24.3671 9.91681 27.178 12.6273 29.3198C12.654 29.3697 12.6475 29.4154 12.6078 29.4564C11.0475 29.5818 9.4859 29.5818 7.9229 29.4564C4.5303 29.1511 2.11632 27.4657 0.680921 24.4007C0.318355 23.5119 0.110152 22.588 0.0562768 21.6288C-0.0187589 14.5756 -0.0187589 7.52222 0.0562768 0.46895C0.132327 0.445174 0.203928 0.419134 0.270999 0.390869Z" fill="#FAFAFA"/>
<path fill-rule="evenodd" clip-rule="evenodd" d="M13.2325 10.3461C15.7118 10.376 17.7875 11.3 19.4594 13.1179C20.0921 13.836 20.5866 14.6428 20.9429 15.5384C21.1608 16.1305 21.2912 16.7421 21.3333 17.3733C21.3462 18.7658 21.3595 20.1582 21.3723 21.5506C21.6019 23.6451 22.2527 25.5971 23.3244 27.4067C23.8706 28.3171 24.5796 29.0784 25.4521 29.6906C25.5641 29.8241 25.5251 29.8893 25.335 29.8858C23.8784 29.9951 22.4206 30.0083 20.9624 29.9248C17.9665 29.6843 15.6566 28.3113 14.0328 25.806C13.2656 24.4931 12.8621 23.0746 12.8225 21.5506C12.8262 17.9459 12.8393 14.3413 12.8616 10.7365C12.8746 10.6454 12.8876 10.5543 12.9006 10.4632C13.0101 10.4098 13.1207 10.3707 13.2325 10.3461Z" fill="#FAFAFA"/>
</g>
<defs>
<clipPath id="clip0_111_606">
<rect width="25.6364" height="30" fill="white"/>
</clipPath>
</defs>
</svg>
