<svg width="31" height="30" viewBox="0 0 31 30" fill="none" xmlns="http://www.w3.org/2000/svg">
<path d="M5.90259 10.4607C6.02085 10.4364 6.45525 10.4767 6.50122 10.5134C6.52158 10.5338 6.61559 10.5505 6.70923 10.5505C6.80288 10.5505 6.93314 10.5786 6.99438 10.6111C7.0594 10.6437 7.1814 10.6725 7.26294 10.6726C7.34437 10.6726 7.42651 10.6892 7.43872 10.7136C7.45164 10.7338 7.53258 10.7536 7.61743 10.7537C7.70302 10.7537 7.82968 10.7826 7.89087 10.8152C7.95589 10.8477 8.07789 10.8766 8.15942 10.8767C8.2407 10.8767 8.32276 10.8924 8.33521 10.9167C8.34741 10.9371 8.44904 10.9577 8.55493 10.9578C8.6606 10.9578 8.76621 10.9781 8.79517 11.0066C8.84402 11.0554 9.08937 11.1004 9.57837 11.1453C9.70047 11.1616 9.82625 11.1904 9.85474 11.2107C9.90773 11.2556 10.2789 11.3166 10.719 11.3533C10.8649 11.3614 11.0069 11.3933 11.0364 11.4177C11.1016 11.4666 11.5425 11.5206 12.2678 11.5613C12.5488 11.5776 12.8056 11.6054 12.8381 11.6257C12.8716 11.6503 13.2177 11.6827 13.6125 11.699C14.9603 11.7642 15.4248 11.7976 15.5676 11.8464C15.645 11.8749 15.8329 11.8953 15.9836 11.8953C16.1341 11.8953 16.2689 11.9109 16.2815 11.9353C16.2938 11.9556 16.4317 11.9763 16.5823 11.9763C16.737 11.9763 16.9246 12.0052 17.0061 12.0378C17.0876 12.0704 17.2343 12.0983 17.3362 12.0984C17.4381 12.0984 17.532 12.115 17.5442 12.1394C17.5564 12.1599 17.6541 12.1804 17.76 12.1804C17.866 12.1845 17.997 12.2084 18.054 12.241C18.1111 12.2736 18.2328 12.2984 18.3264 12.3025C18.4201 12.3025 18.5105 12.3191 18.5227 12.3435C18.5359 12.3637 18.6167 12.3835 18.6975 12.3835C18.779 12.3876 18.8935 12.4125 18.9504 12.4451C19.0075 12.4775 19.1088 12.5025 19.1819 12.5066C19.251 12.5066 19.3246 12.5222 19.3372 12.5466C19.3495 12.567 19.4231 12.5876 19.4924 12.5876C19.5657 12.5877 19.6588 12.6167 19.6995 12.6492C19.7443 12.6818 19.838 12.7096 19.9114 12.7097C19.9848 12.7097 20.0583 12.7263 20.0706 12.7507C20.0828 12.7711 20.1565 12.7917 20.2297 12.7917C20.3071 12.7918 20.3887 12.8198 20.4172 12.8523C20.4457 12.8849 20.5108 12.9138 20.5637 12.9138C20.6207 12.9138 20.7021 12.9342 20.7551 12.9626C20.804 12.9871 20.8738 13.0196 20.9065 13.0359C20.943 13.0527 20.9754 13.1462 20.9875 13.28C20.9997 13.402 21.0323 13.5037 21.0608 13.5164C21.0893 13.5245 21.1096 13.6026 21.1096 13.6882C21.1097 13.7734 21.1302 13.8584 21.1506 13.8708C21.175 13.883 21.1916 13.9485 21.1917 14.0095C21.1917 14.0705 21.2197 14.1559 21.2522 14.2009C21.2849 14.2416 21.3137 14.3357 21.3137 14.4089C21.3137 14.4783 21.3344 14.552 21.3547 14.5642C21.3789 14.5773 21.3948 14.6504 21.3948 14.7273C21.3949 14.8005 21.4238 14.8899 21.4563 14.9265C21.4888 14.9592 21.5178 15.0491 21.5178 15.1306C21.5179 15.2079 21.5375 15.2853 21.5579 15.2976C21.5823 15.3098 21.5989 15.3752 21.5989 15.4363C21.599 15.4974 21.6278 15.5829 21.6604 15.6277C21.6929 15.6686 21.7209 15.7626 21.7209 15.8357C21.721 15.9049 21.7417 15.9778 21.762 15.99C21.7864 16.0024 21.803 16.0676 21.803 16.1287C21.803 16.1897 21.831 16.2753 21.8635 16.3201C21.8962 16.3609 21.925 16.4547 21.925 16.5281C21.9251 16.5967 21.9449 16.6693 21.9651 16.6824C21.9895 16.6946 22.006 16.7601 22.0061 16.821C22.0061 16.8821 22.0351 16.9675 22.0676 17.0125C22.1002 17.0531 22.1281 17.1472 22.1282 17.2205C22.1282 17.2897 22.1447 17.3634 22.1692 17.3757C22.1936 17.3879 22.2102 17.4493 22.2102 17.5105C22.2144 17.5714 22.2384 17.6645 22.2708 17.7214C22.3034 17.7784 22.3281 17.8722 22.3323 17.9333C22.3323 17.9944 22.3529 18.0559 22.3733 18.0681C22.3976 18.0806 22.4133 18.1459 22.4133 18.2068C22.4133 18.2679 22.4423 18.3533 22.4749 18.3982C22.5074 18.4389 22.5364 18.5453 22.5364 18.6267C22.5364 18.7077 22.5562 18.7886 22.5764 18.8015C22.6008 18.8137 22.6174 18.8789 22.6174 18.9441C22.6174 18.9931 22.6336 19.0493 22.6555 19.0896L22.7024 19.158C22.724 19.2007 22.7394 19.266 22.7395 19.3269C22.7395 19.4043 22.7602 19.4827 22.7805 19.4949C22.8049 19.5073 22.8215 19.5679 22.8215 19.6287C22.8215 19.6898 22.8495 19.792 22.8821 19.8572C22.9148 19.9184 22.9436 20.0244 22.9436 20.0896C22.9437 20.1506 22.9643 20.2161 22.9846 20.2283C23.0087 20.2409 23.0246 20.293 23.0247 20.3416C23.0247 20.3904 23.0536 20.4844 23.0862 20.5496C23.1188 20.6107 23.1467 20.7251 23.1467 20.8025C23.1467 20.8758 23.1673 20.9493 23.1877 20.9617C23.2122 20.9739 23.2288 21.0392 23.2288 21.1003C23.2289 21.1614 23.2578 21.2471 23.2903 21.2917C23.3228 21.3328 23.3508 21.4381 23.3508 21.5193C23.3508 21.6008 23.3715 21.6829 23.3918 21.6951C23.4161 21.7077 23.4329 21.7688 23.4329 21.8298C23.433 21.8909 23.457 21.9766 23.4895 22.0212C23.518 22.0661 23.5544 22.1676 23.5667 22.2449C23.6033 22.4894 23.6854 22.7948 23.718 22.8152C23.7343 22.8276 23.7586 22.9093 23.7708 22.9988C23.7952 23.2025 23.8682 23.5002 23.9211 23.6101C23.9416 23.655 23.9665 23.7564 23.9788 23.8337C24.0073 24.062 24.0845 24.3764 24.1252 24.4539C24.1861 24.5607 24.1743 25.2033 24.1174 25.3093C24.0522 25.4153 23.3142 26.1524 23.1633 26.2625C23.0494 26.344 22.8175 26.5316 22.679 26.658C22.6341 26.6988 22.5364 26.7683 22.467 26.8132C22.3936 26.8621 22.3323 26.9148 22.3323 26.9353C22.3321 26.9556 22.3033 26.9714 22.2708 26.9714C22.2383 26.9715 22.2102 26.9881 22.2102 27.0125C22.2102 27.0327 22.1858 27.0533 22.1575 27.0535C22.1289 27.0535 22.0632 27.0943 22.0061 27.1472C21.9489 27.1963 21.802 27.3023 21.6799 27.3796C21.5579 27.457 21.4517 27.5343 21.4436 27.5505C21.4352 27.5708 21.4029 27.5828 21.3704 27.5828C21.3379 27.5828 21.3137 27.5996 21.3137 27.6199C21.3134 27.6402 21.2809 27.6682 21.2444 27.6804C21.1099 27.7335 20.9875 27.8071 20.9875 27.8357C20.9875 27.8559 20.9632 27.8678 20.9309 27.8679C20.9024 27.8679 20.853 27.8969 20.8245 27.9294C20.796 27.962 20.7391 27.9899 20.6985 27.99C20.6537 27.99 20.6204 28.0067 20.6204 28.0271C20.6203 28.0474 20.5802 28.0801 20.5315 28.0964C20.4786 28.1127 20.4297 28.1329 20.4172 28.1492C20.405 28.1614 20.2332 28.2515 20.0295 28.3494C19.83 28.447 19.6307 28.5448 19.594 28.5652C19.5533 28.5856 19.4919 28.6013 19.4592 28.6013C19.4268 28.6014 19.3987 28.618 19.3987 28.6423C19.3987 28.6627 19.3614 28.6833 19.3206 28.6833C19.2758 28.6835 19.2145 28.7114 19.178 28.7439C19.1454 28.7765 19.0802 28.8054 19.0354 28.8054C18.9907 28.8055 18.9462 28.8221 18.9299 28.8425C18.9174 28.8628 18.8523 28.8907 18.7874 28.907C18.7182 28.9232 18.6654 28.952 18.6653 28.9724C18.6653 28.9928 18.6319 29.0095 18.5872 29.0095C18.5462 29.0097 18.4568 29.0376 18.3958 29.0701C18.3306 29.1027 18.2449 29.1316 18.2083 29.1316C18.1678 29.1317 18.1354 29.1475 18.135 29.1716C18.135 29.192 18.0821 29.2126 18.0168 29.2126C17.9477 29.2127 17.8865 29.2294 17.8743 29.2498C17.8577 29.2701 17.7762 29.2989 17.6868 29.3152C17.5977 29.3314 17.5244 29.3593 17.5237 29.3796C17.5237 29.4 17.4509 29.4167 17.3655 29.4167C17.2763 29.4167 17.1948 29.4327 17.1819 29.4529C17.1737 29.463 17.149 29.4753 17.1155 29.4871L16.8733 29.5496C16.8395 29.5613 16.8151 29.5735 16.8069 29.5837C16.7945 29.6042 16.7129 29.6208 16.6233 29.6208C16.534 29.6209 16.4205 29.6405 16.3752 29.6648C16.2815 29.7137 15.971 29.7754 15.5676 29.8162C15.4211 29.8325 15.279 29.8613 15.2463 29.8816C15.1812 29.9223 13.9138 30.0038 13.4084 29.9998C12.785 29.9916 11.88 29.9217 11.7903 29.8728C11.7412 29.8443 11.6029 29.824 11.4768 29.824C11.3546 29.824 11.24 29.8033 11.2278 29.783C11.2146 29.7588 11.1256 29.7429 11.0325 29.7429C10.939 29.7429 10.8254 29.7139 10.7844 29.6814C10.7397 29.6489 10.6336 29.6209 10.5481 29.6208C10.463 29.6208 10.3935 29.6001 10.3928 29.5798C10.3928 29.5554 10.3436 29.5388 10.2825 29.5388C10.2174 29.5387 10.1161 29.5098 10.051 29.4773C9.99 29.4447 9.89213 29.4169 9.83911 29.4167C9.79025 29.4167 9.73707 29.4 9.72485 29.3796C9.71244 29.3593 9.63496 29.3313 9.55786 29.3191C9.48044 29.3028 9.41536 29.274 9.41528 29.2537C9.41528 29.2292 9.36145 29.2126 9.29224 29.2126C9.22719 29.2126 9.17017 29.196 9.17017 29.1716C9.16916 29.1513 9.10434 29.1233 9.02759 29.1072C8.95022 29.0949 8.88501 29.066 8.88501 29.0457C8.88484 29.0254 8.84029 29.0095 8.78345 29.0095C8.72643 29.0095 8.68202 28.9888 8.68188 28.9685C8.68188 28.9441 8.66132 28.9277 8.63696 28.9275C8.59627 28.9275 8.38438 28.8417 8.23364 28.7683C8.04228 28.6705 7.67963 28.4631 7.64673 28.4343C7.62227 28.414 7.58147 28.3983 7.55298 28.3982C7.5245 28.3982 7.42679 28.3527 7.33716 28.2957C7.24759 28.2387 7.1493 28.1941 7.11255 28.1941C7.07998 28.1941 7.05103 28.1775 7.05103 28.1531C7.05029 28.1325 6.98161 28.0843 6.90063 28.0437C6.81578 28.0074 6.73917 27.9627 6.72583 27.946C6.71362 27.9337 6.64017 27.8842 6.56274 27.8435C6.48539 27.7986 6.3627 27.7256 6.28931 27.6726C6.22003 27.6238 6.14286 27.5828 6.11841 27.5828C6.09808 27.5828 6.02902 27.5381 5.96802 27.4812C5.90688 27.4241 5.83721 27.3797 5.81274 27.3796C5.78833 27.3796 5.67012 27.2857 5.552 27.1716C5.34832 26.972 5.27921 26.809 5.3811 26.7478C5.40542 26.7354 5.42111 26.6579 5.42114 26.5808C5.42114 26.5197 5.43744 26.4537 5.45923 26.4109L5.5061 26.3425C5.52779 26.3024 5.54409 26.2467 5.54419 26.198C5.54419 26.1328 5.56378 26.0667 5.58423 26.0544C5.60864 26.0422 5.62522 25.9613 5.62524 25.8757C5.62524 25.7902 5.65403 25.6638 5.69067 25.5945C5.74369 25.4844 5.75171 25.3087 5.7395 24.449C5.73136 23.7036 5.71472 23.4184 5.67798 23.3777C5.64148 23.3447 5.62526 23.2022 5.62524 22.9705V22.616L5.80005 22.8074C5.89787 22.9133 6.04924 23.0806 6.13892 23.1785C6.22458 23.2804 6.3874 23.4429 6.49731 23.5447C6.82732 23.8543 6.94192 23.9608 7.31274 24.3113C7.5082 24.4985 7.67912 24.6492 7.69946 24.6492C7.7445 24.6495 8.02949 24.9221 8.02954 24.9587C8.02954 24.975 8.07411 25.0485 8.1311 25.1218C8.18819 25.1952 8.2336 25.2928 8.23364 25.3376C8.23364 25.3824 8.25323 25.4318 8.27368 25.4441C8.29807 25.4563 8.31464 25.5046 8.3147 25.5535C8.3147 25.5982 8.33884 25.684 8.37134 25.741C8.44473 25.8917 8.5188 26.1244 8.5188 26.2263C8.51892 26.2709 8.54698 26.3316 8.57935 26.3601C8.61186 26.3886 8.64078 26.4703 8.64087 26.5476C8.64087 26.6209 8.66153 26.6946 8.68188 26.7068C8.70615 26.7194 8.72192 26.7929 8.72192 26.866C8.72198 26.9393 8.7508 27.033 8.78345 27.0779C8.81596 27.1186 8.84399 27.1961 8.84399 27.2449C8.84402 27.3262 8.86485 27.3386 9.00317 27.3386C9.1581 27.3386 9.41528 27.2281 9.41528 27.1628C9.41563 27.1467 9.43961 27.1345 9.47192 27.1345C9.58185 27.1345 10.0248 26.5165 10.0256 26.365C10.0256 26.3203 10.0384 26.2795 10.0588 26.2712C10.0751 26.2672 10.1244 26.1851 10.1692 26.0955C10.4217 25.5824 10.7959 25.106 11.0852 24.9265C11.162 24.8779 11.2353 24.8249 11.2483 24.8123C11.2605 24.8001 11.3341 24.7553 11.4114 24.7146C11.4888 24.678 11.648 24.5922 11.7581 24.5271C11.872 24.4619 12.0224 24.3805 12.0959 24.3396C12.1733 24.303 12.2429 24.2452 12.2551 24.2126C12.2674 24.1843 12.3 24.1599 12.3284 24.1599C12.3975 24.1599 12.633 24.0263 12.634 23.9851C12.634 23.9689 12.6583 23.9569 12.6907 23.9568C12.7233 23.9568 12.7846 23.9113 12.8293 23.8542C12.8742 23.7972 12.9234 23.7527 12.9397 23.7527C13.0296 23.7524 14.0198 22.8108 14.0198 22.7253C14.0193 22.6524 13.897 22.6485 13.7668 22.7175C13.5307 22.8397 13.494 22.8562 13.4329 22.8562C13.4044 22.8562 13.3549 22.8852 13.3264 22.9177C13.2978 22.9501 13.2411 22.9783 13.2004 22.9783C13.1231 22.9783 13.0945 22.9867 12.8459 23.113C12.7686 23.1497 12.6747 23.1824 12.634 23.1824C12.5936 23.1824 12.5451 23.1982 12.5325 23.2224C12.5203 23.2428 12.4672 23.2634 12.4143 23.2634C12.3654 23.2634 12.2872 23.2924 12.2424 23.325C12.2015 23.3573 12.1085 23.3854 12.0354 23.3855C11.9662 23.3855 11.8924 23.4021 11.8801 23.4265C11.8679 23.4468 11.7949 23.4674 11.7258 23.4675C11.6525 23.4675 11.542 23.4955 11.4768 23.5281C11.4157 23.5606 11.265 23.5896 11.1428 23.5896C11.0246 23.5896 10.9187 23.6062 10.9065 23.6267C10.868 23.6836 9.83099 23.7114 9.43579 23.6667C8.73079 23.5893 8.68188 23.5813 8.68188 23.5447C8.68157 23.5284 8.61633 23.4995 8.53931 23.4832C8.46184 23.4709 8.38355 23.443 8.37134 23.4226C8.35898 23.4023 8.30626 23.3855 8.24927 23.3855C8.19229 23.3854 8.11872 23.3575 8.08618 23.325C8.04953 23.2924 7.98836 23.2634 7.9436 23.2634C7.903 23.2633 7.86646 23.2428 7.86646 23.2224C7.86593 23.1982 7.82138 23.1824 7.7688 23.1824C7.71576 23.1824 7.66301 23.1534 7.64673 23.1208C7.63446 23.0882 7.58503 23.0603 7.54028 23.0603C7.49568 23.0602 7.45938 23.0396 7.45923 23.0193C7.45923 22.9949 7.42655 22.9784 7.38599 22.9783C7.34925 22.9783 7.26747 22.9337 7.2063 22.8767C7.14523 22.8196 7.07545 22.7751 7.05103 22.7751C7.02605 22.7746 6.94515 22.7294 6.87231 22.6726C6.79893 22.6156 6.71705 22.571 6.69263 22.571C6.66426 22.5709 6.6438 22.5541 6.6438 22.5378C6.64242 22.5168 6.55377 22.4397 6.44067 22.363C6.22885 22.2204 5.21802 21.2261 5.21802 21.1609C5.21785 21.1404 5.17314 21.0753 5.12036 21.0183C5.06734 20.9613 4.94462 20.7904 4.84692 20.6316C4.74965 20.4776 4.66071 20.3433 4.64771 20.3298C4.63549 20.3176 4.59006 20.2397 4.54517 20.1541C4.50077 20.0734 4.4524 20.0046 4.43579 20.0037C4.41546 20.0037 4.40265 19.9795 4.40259 19.947C4.40259 19.9143 4.35789 19.8002 4.30493 19.6902C4.25199 19.5843 4.17855 19.4215 4.14185 19.3318C4.10526 19.2423 4.05684 19.1363 4.03638 19.0994C4.01194 19.0587 3.99536 18.9928 3.99536 18.948C3.99516 18.9071 3.96633 18.8176 3.93384 18.7566C3.90132 18.6915 3.87329 18.6057 3.87329 18.5691C3.87318 18.5325 3.85663 18.4875 3.83228 18.4753C3.81197 18.4626 3.79126 18.3771 3.79126 18.2878C3.79119 18.1983 3.77074 18.0886 3.74634 18.0398C3.64053 17.8396 3.53922 16.2096 3.62427 16.1208C3.64872 16.0964 3.66919 15.9698 3.66919 15.8435C3.66919 15.7172 3.69813 15.534 3.73071 15.4402C3.76329 15.3466 3.79123 15.1956 3.79126 15.1101C3.79126 15.0245 3.808 14.9465 3.82837 14.9343C3.8447 14.9213 3.8727 14.82 3.88892 14.7107C3.9052 14.5967 3.93397 14.4946 3.95435 14.4822C3.9788 14.47 3.99536 14.3964 3.99536 14.3191C3.99543 14.2418 4.01604 14.1682 4.03638 14.156C4.0605 14.1436 4.07628 14.0996 4.07642 14.0632C4.07642 14.0266 4.10542 13.9409 4.13794 13.8757C4.17045 13.8148 4.1993 13.7291 4.19946 13.6882C4.19946 13.6474 4.23215 13.5538 4.2688 13.4763C4.3949 13.2282 4.40256 13.199 4.40259 13.1218C4.40259 13.1014 4.40989 13.0764 4.42114 13.0535L4.50708 12.9363C4.51817 12.9135 4.52463 12.8891 4.52466 12.8689C4.52466 12.8284 4.5453 12.7838 4.56567 12.7712C4.5901 12.759 4.60669 12.7094 4.60669 12.6687C4.60678 12.6283 4.61883 12.5882 4.63892 12.5798C4.66741 12.5676 4.72898 12.4452 4.86743 12.1316C4.90395 12.0504 4.95242 11.9685 4.9729 11.9558C4.99731 11.9436 5.01389 11.8951 5.01392 11.8542C5.01392 11.8138 5.02599 11.7729 5.04614 11.7644C5.0869 11.748 5.21759 11.4923 5.21802 11.4226C5.21802 11.39 5.2346 11.365 5.25903 11.365C5.27961 11.364 5.32414 11.2993 5.3606 11.2224C5.39724 11.1451 5.45392 11.0634 5.48657 11.0349C5.51914 11.0105 5.54419 10.9656 5.54419 10.9412C5.54459 10.9164 5.60135 10.8307 5.66626 10.7537C5.73547 10.6762 5.80055 10.5783 5.81274 10.5417C5.82109 10.5052 5.86606 10.4688 5.90259 10.4607ZM4.07642 21.2468C4.1538 21.1531 4.27666 21.173 4.32153 21.2869C4.34189 21.3439 4.37814 21.3893 4.40259 21.3894C4.42293 21.3894 4.44356 21.4257 4.4436 21.4705C4.4436 21.5192 4.48825 21.6047 4.54517 21.6658C4.60227 21.7269 4.64673 21.7929 4.64673 21.8093C4.64764 21.8305 4.71249 21.9195 4.78931 22.0125C4.93191 22.1754 4.93188 22.1798 4.93188 22.571C4.93188 22.958 4.92797 22.9662 4.80981 23.072C4.74496 23.1329 4.66003 23.182 4.6272 23.1824C4.5948 23.1824 4.56598 23.1981 4.56567 23.2224C4.56567 23.2427 4.53319 23.2633 4.48853 23.2634C4.44778 23.2634 4.3901 23.2924 4.36157 23.325C4.33304 23.3575 4.28843 23.3855 4.26001 23.3855C4.23144 23.3855 4.11707 23.4301 4.00708 23.4832C3.73014 23.6175 3.39231 23.7725 3.19263 23.8582C3.09483 23.8989 3.01685 23.9442 3.01685 23.9646C3.01635 23.9809 2.97201 23.9968 2.91528 23.9968C2.85825 23.9968 2.81372 24.0134 2.81372 24.0378C2.8136 24.0582 2.78033 24.0789 2.7356 24.0789C2.69491 24.0791 2.63806 24.107 2.60962 24.1394C2.58117 24.1719 2.53659 24.2008 2.50806 24.2009C2.46324 24.2009 2.2022 24.3144 1.94556 24.4529C1.90075 24.4732 1.71753 24.5673 1.53833 24.657C1.35514 24.7466 1.17194 24.8367 1.13501 24.8572C1.09433 24.8776 0.988251 24.8933 0.898682 24.8933C0.751992 24.8933 0.706706 24.8686 0.531494 24.6892C0.417521 24.5752 0.327393 24.4569 0.327393 24.4285C0.327138 24.396 0.299238 24.3514 0.266846 24.323C0.234348 24.2946 0.205507 24.2378 0.205322 24.197C0.205322 24.1525 0.189465 24.1193 0.165283 24.1189C0.144905 24.1189 0.124268 24.0781 0.124268 24.0251C0.124124 23.9763 0.0951944 23.8832 0.0627441 23.8181C-0.0635316 23.5778 0.0139664 23.1417 0.180908 23.1414C0.205349 23.1414 0.275085 23.0969 0.336182 23.0398C0.397196 22.9829 0.46202 22.9374 0.486572 22.9373C0.539527 22.9373 0.792396 22.8032 0.808838 22.7625C0.816969 22.7462 0.865408 22.7342 0.918213 22.7341C0.971185 22.7341 1.02041 22.7213 1.02856 22.7009C1.04108 22.6724 1.11554 22.6357 1.57056 22.4285C1.70503 22.3674 1.84363 22.3014 1.87622 22.281C1.90879 22.2607 1.96572 22.2327 1.99829 22.2205C2.19795 22.1389 2.32459 22.0734 2.34497 22.0408C2.35746 22.0165 2.41417 22.0008 2.47095 22.0007C2.52383 22.0007 2.56845 21.98 2.5686 21.9597C2.5686 21.9354 2.59314 21.9189 2.61743 21.9187C2.64594 21.9187 2.76025 21.8739 2.87427 21.821C2.98428 21.768 3.1073 21.7112 3.13989 21.699C3.17255 21.6867 3.22947 21.6577 3.26196 21.6375C3.29487 21.613 3.40076 21.5647 3.49829 21.5281C3.59199 21.4874 3.66919 21.442 3.66919 21.4216C3.66939 21.4053 3.70581 21.3895 3.74634 21.3894C3.79117 21.3894 3.84056 21.3687 3.85278 21.3484C3.86507 21.324 3.90974 21.3074 3.95044 21.3074C3.99104 21.3073 4.04782 21.2792 4.07642 21.2468ZM19.4553 17.0535C19.3047 16.9965 19.2756 17.0336 19.2756 17.3025C19.2756 17.4205 19.2477 17.5871 19.2151 17.6687C19.1825 17.7461 19.1536 17.8933 19.1536 17.991C19.1535 18.0841 19.1377 18.1771 19.1135 18.1902C19.0932 18.2024 19.0725 18.2639 19.0725 18.325C19.0725 18.386 19.0436 18.4882 19.011 18.5535C18.9785 18.6145 18.9504 18.7042 18.9504 18.7449C18.9504 18.8222 18.9419 18.851 18.8157 19.0994C18.7791 19.1768 18.7463 19.2703 18.7463 19.3152C18.7463 19.3559 18.7299 19.3923 18.7053 19.3923C18.6851 19.3927 18.6654 19.4374 18.6653 19.49C18.6653 19.543 18.6363 19.5968 18.6038 19.613C18.5712 19.6254 18.5423 19.6738 18.5422 19.7185C18.5422 19.7633 18.5263 19.8005 18.51 19.8005C18.4937 19.8006 18.4574 19.849 18.4329 19.9099C18.3677 20.0608 18.2286 20.2973 18.1877 20.3259C18.1713 20.3386 18.1311 20.3952 18.1028 20.4519C18.0743 20.5089 17.9764 20.6352 17.8909 20.7371C17.8016 20.8385 17.7284 20.932 17.7278 20.949C17.7278 20.9693 17.5438 21.1692 17.3157 21.3933C17.0672 21.6458 16.9166 21.8295 16.929 21.8621C16.9577 21.9393 17.32 21.9354 17.426 21.8582C17.4668 21.8256 17.5439 21.7968 17.5969 21.7966C17.6458 21.7966 17.6868 21.776 17.6868 21.7556C17.6872 21.7314 17.7319 21.7156 17.7844 21.7156C17.8415 21.7156 17.8992 21.6949 17.9114 21.6746C17.9237 21.6501 18.0169 21.5973 18.1145 21.5525C18.2123 21.5077 18.3026 21.4502 18.3108 21.4216C18.323 21.3936 18.3352 21.41 18.3352 21.4587C18.3392 21.5116 18.3225 21.5525 18.2981 21.5525C18.2777 21.5525 18.2571 21.585 18.2571 21.6257C18.257 21.6663 18.2291 21.7353 18.1965 21.78C18.1641 21.8206 18.1352 21.8981 18.135 21.947C18.135 21.996 18.123 22.0414 18.1067 22.0496C18.0863 22.0536 18.0411 22.1347 17.9963 22.2244C17.8863 22.4689 17.8744 22.4937 17.7522 22.7136C17.6872 22.8233 17.614 22.945 17.5813 22.9822C17.5486 23.0147 17.5237 23.0642 17.5237 23.0886C17.5233 23.1094 17.4752 23.1828 17.4143 23.2478C17.2843 23.39 17.1942 23.548 17.2219 23.5974C17.2504 23.6423 17.4016 23.6386 17.4016 23.5896C17.4016 23.5652 17.4341 23.5488 17.4749 23.5447C17.5114 23.5447 17.6011 23.5084 17.6663 23.4636C17.7356 23.4229 17.8256 23.3698 17.8704 23.3494C17.9151 23.329 17.9924 23.2721 18.0413 23.2273C18.0902 23.1784 18.1516 23.1414 18.176 23.1414C18.2422 23.1403 18.8606 22.5337 18.9583 22.3708C19.0072 22.2894 19.0603 22.2162 19.0725 22.2039C19.1299 22.1583 19.3167 21.8371 19.3167 21.78C19.3169 21.7476 19.3457 21.7153 19.3782 21.699C19.4106 21.6867 19.4386 21.642 19.4387 21.5974C19.4387 21.5526 19.4593 21.5032 19.4797 21.491C19.5042 21.4788 19.5207 21.434 19.5208 21.3933C19.5208 21.3528 19.5489 21.2959 19.5813 21.2673C19.614 21.2388 19.6428 21.1728 19.6428 21.1199C19.6429 21.0711 19.6635 21.0139 19.6838 21.0017C19.708 20.9891 19.7238 20.9247 19.7239 20.864C19.7239 20.8028 19.7452 20.7333 19.7737 20.7048C19.8306 20.6474 19.8834 20.3744 19.9241 19.9187C19.9444 19.7234 19.9692 19.5443 19.9856 19.5193C20.0263 19.4582 19.9319 18.2968 19.8831 18.2029C19.8627 18.1622 19.847 18.0888 19.8469 18.0359C19.8469 17.9829 19.818 17.905 19.7854 17.8601C19.7529 17.8193 19.7239 17.7337 19.7239 17.6687C19.7238 17.6079 19.7081 17.5597 19.6838 17.5593C19.6635 17.5593 19.6428 17.5137 19.6428 17.4607C19.6427 17.4078 19.6139 17.3426 19.5813 17.3142C19.557 17.2928 19.5351 17.2508 19.5256 17.2107L19.5159 17.1326C19.5061 17.0948 19.4829 17.0626 19.4553 17.0535ZM23.4319 2.33569C23.4319 2.29087 23.4896 2.31942 23.6282 2.42944C23.8565 2.61298 24.4907 3.24331 24.4915 3.28882C24.4915 3.30511 24.6506 3.48483 24.842 3.68042C25.0336 3.88008 25.2624 4.13665 25.3479 4.25073C25.4335 4.36476 25.5755 4.53984 25.6692 4.63354C25.7629 4.73137 25.8362 4.82527 25.8362 4.84155C25.8365 4.86211 25.8979 4.93922 25.9709 5.01636C26.0403 5.09382 26.126 5.20448 26.1545 5.26147C26.1871 5.31847 26.2561 5.41147 26.3088 5.46851C26.3616 5.52536 26.4072 5.5868 26.4075 5.60327C26.4075 5.61954 26.468 5.70508 26.5413 5.79858C26.6145 5.89233 26.7167 6.03541 26.7698 6.11694C26.8182 6.20181 26.8787 6.27013 26.8997 6.27124C26.92 6.27124 26.9368 6.30838 26.9368 6.35327C26.9368 6.39767 26.9528 6.43377 26.969 6.43433C26.9894 6.43433 27.0385 6.50416 27.0833 6.58569C27.124 6.67117 27.2012 6.78544 27.2542 6.84253C27.3028 6.89512 27.3435 6.95941 27.344 6.97632C27.344 6.99667 27.3894 7.06993 27.4465 7.14331C27.5035 7.2166 27.5481 7.29857 27.5481 7.323C27.5481 7.34735 27.5602 7.37135 27.5803 7.37964C27.621 7.39591 27.8329 7.72576 27.8333 7.77515C27.8333 7.79549 27.8573 7.83264 27.8899 7.85718C27.9226 7.88567 27.9802 7.9625 28.0168 8.03589C28.0536 8.10914 28.135 8.25579 28.2043 8.36987C28.2736 8.4798 28.3386 8.60656 28.3508 8.64331C28.363 8.68388 28.3873 8.71639 28.4036 8.71655C28.4199 8.71655 28.4489 8.76121 28.4612 8.81812C28.4774 8.87484 28.5053 8.92022 28.5256 8.92065C28.5502 8.92065 28.5667 8.94098 28.5667 8.96948C28.5671 9.04319 28.7005 9.32628 28.7375 9.32788C28.7538 9.32788 28.7707 9.37243 28.7708 9.42944C28.7708 9.48632 28.7826 9.53178 28.803 9.53198C28.8192 9.53198 28.852 9.57209 28.8723 9.62085C28.917 9.72667 29.1529 9.77599 29.2307 9.69897C29.2551 9.67459 29.3447 9.65413 29.426 9.65405C29.5522 9.65405 29.6016 9.67816 29.6829 9.78784C29.7439 9.86507 29.7892 9.94685 29.7893 9.97144C29.7893 9.99581 29.8011 10.0208 29.8215 10.0291C29.8582 10.0453 29.9888 10.3184 30.1477 10.7136C30.1681 10.7707 30.2176 10.8802 30.2542 10.9656C30.2908 11.047 30.3185 11.1408 30.3186 11.1736C30.3186 11.2102 30.3354 11.2473 30.3557 11.2595C30.376 11.2722 30.4003 11.3531 30.4084 11.4343C30.4207 11.5198 30.4409 11.6223 30.4573 11.6589C30.4815 11.7158 30.4695 11.7322 30.4084 11.7322C30.3637 11.7322 30.3189 11.7442 30.3108 11.7605C30.3063 11.781 30.1351 11.8747 29.9397 11.9724L29.5774 12.1511L29.5979 12.3796C29.6264 12.6848 29.7035 13.0836 29.7483 13.1375C29.7646 13.1578 29.7888 13.2883 29.801 13.4226C29.8378 13.8179 29.9156 14.3114 29.9524 14.4011C29.9727 14.4463 29.9968 14.6294 30.009 14.8083C30.0457 15.4318 30.1197 16.1937 30.1604 16.3201C30.1807 16.3894 30.1965 16.6708 30.1965 16.9519C30.1965 17.229 30.217 17.6202 30.2415 17.824C30.3066 18.3863 30.3152 19.4784 30.2542 20.0447C30.2257 20.3258 30.2007 20.7331 30.1965 20.949C30.1965 21.165 30.1799 21.3566 30.1555 21.3689C30.1313 21.3816 30.1155 21.4626 30.1155 21.5437C30.1114 21.6252 30.0866 21.7686 30.054 21.8582C30.0215 21.9476 29.9935 22.0693 29.9934 22.1345C29.9934 22.1955 29.9766 22.2774 29.9563 22.3181C29.8707 22.477 29.7893 22.6688 29.7893 22.7136C29.7892 22.7421 29.7603 22.7745 29.7278 22.7908C29.6749 22.8108 29.6664 22.7127 29.6624 22.0701C29.6624 21.6626 29.6427 21.1975 29.6223 21.0427C29.5979 20.8838 29.5647 20.5743 29.5442 20.3503C29.471 19.4796 29.4267 19.1003 29.386 19.0544C29.3656 19.026 29.3365 18.8752 29.3284 18.7205C29.2916 18.2355 29.2306 17.8477 29.1858 17.7947C29.1654 17.7653 29.1374 17.6398 29.1252 17.5183C29.0845 17.1027 29.0235 16.776 28.9788 16.7312C28.9544 16.7068 28.9339 16.5893 28.9338 16.4753C28.9338 16.3572 28.9173 16.2463 28.8928 16.2341C28.8725 16.2218 28.8518 16.149 28.8518 16.0798C28.8518 16.0064 28.8239 15.8961 28.7913 15.8308C28.7587 15.7698 28.7298 15.6439 28.7297 15.5583C28.7297 15.4727 28.713 15.3948 28.6926 15.3826C28.6763 15.3687 28.6482 15.2679 28.6321 15.1589C28.6158 15.0448 28.587 14.9426 28.5667 14.9304C28.5423 14.9179 28.5256 14.8406 28.5256 14.7634C28.5256 14.686 28.5098 14.5922 28.4895 14.5515C28.4651 14.5149 28.4363 14.4134 28.4241 14.3279C28.4118 14.2465 28.3829 14.1765 28.3625 14.1765C28.3384 14.1758 28.3225 14.1148 28.3225 14.0378C28.3225 13.9607 28.3058 13.8882 28.2854 13.8757C28.265 13.8635 28.2371 13.7852 28.2249 13.7078C28.2086 13.6307 28.1797 13.5655 28.1594 13.5652C28.1349 13.5652 28.1184 13.504 28.1184 13.4265C28.1183 13.3494 28.1026 13.2759 28.0823 13.2595C28.0619 13.2473 28.0291 13.1785 28.0168 13.1052C27.9639 12.8648 27.7843 12.7548 27.6702 12.8933C27.6415 12.9258 27.5765 12.9548 27.5237 12.9548C27.4749 12.9548 27.418 12.9706 27.4055 12.9949C27.3932 13.0152 27.3364 13.0358 27.2795 13.0359C27.2224 13.0359 27.1687 13.0647 27.1565 13.0974C27.14 13.1298 27.0954 13.158 27.0549 13.158C26.9775 13.158 26.949 13.1664 26.7004 13.2927C26.6231 13.3293 26.5296 13.362 26.4846 13.3621C26.4442 13.3621 26.4079 13.3779 26.4075 13.4021C26.4075 13.4225 26.3618 13.4431 26.3088 13.4431C26.252 13.4433 26.1833 13.4722 26.1467 13.5046C26.114 13.5372 26.0563 13.5652 26.0237 13.5652C25.9587 13.5652 25.9299 13.578 25.6819 13.7C25.6046 13.7366 25.5111 13.7691 25.4661 13.7693C25.4253 13.7693 25.3879 13.7859 25.3879 13.8103C25.3876 13.8306 25.3553 13.8513 25.3147 13.8513C25.274 13.8514 25.2051 13.8794 25.1604 13.9119C25.1198 13.9444 25.0423 13.9733 24.9934 13.9734C24.9406 13.9734 24.9001 13.9892 24.8997 14.0134C24.8997 14.0337 24.8548 14.0543 24.802 14.0544C24.7491 14.0544 24.683 14.0833 24.6545 14.116C24.626 14.1484 24.5768 14.1765 24.5403 14.1765C24.4544 14.177 24.1685 14.3062 24.1663 14.3474C24.1663 14.3638 24.1207 14.3806 24.0676 14.3806C24.0108 14.3807 23.9539 14.3973 23.9417 14.4216C23.9292 14.4459 23.8806 14.4616 23.8401 14.4617C23.7993 14.4617 23.7381 14.4906 23.7014 14.5232C23.6688 14.5557 23.612 14.5836 23.5793 14.5837C23.5427 14.5837 23.4815 14.6004 23.4407 14.6208C23.3634 14.6575 23.1435 14.7551 22.9846 14.8162C22.887 14.8568 22.6753 14.9504 22.6096 14.9832C22.5893 14.9913 22.5765 14.9634 22.5764 14.9148C22.5764 14.87 22.5599 14.8206 22.5354 14.8083C22.5152 14.7956 22.4954 14.7306 22.4954 14.6619C22.4954 14.5966 22.475 14.5064 22.4465 14.4656C22.3856 14.3639 22.447 14.2827 22.6545 14.1931C22.7361 14.1564 22.8943 14.0829 23.0042 14.03C23.1181 13.9772 23.2284 13.9325 23.2571 13.9324C23.2815 13.9324 23.3552 13.9034 23.4163 13.8708C23.4815 13.8382 23.5671 13.8103 23.6038 13.8103C23.6404 13.8102 23.6853 13.7896 23.6975 13.7693C23.71 13.745 23.7788 13.7283 23.8479 13.7283C23.9824 13.7283 24.3822 13.6065 24.4026 13.5535C24.4107 13.5373 24.4386 13.5253 24.467 13.5251C24.5281 13.5251 24.7366 13.3128 24.7366 13.2517C24.7366 13.2273 24.7571 13.1983 24.7815 13.1902C24.8344 13.1725 24.9115 12.8925 24.9075 12.7097C24.9074 12.4899 24.8344 12.1643 24.7815 12.1472C24.6715 12.1106 24.8017 11.7722 24.928 11.7722C24.9894 11.772 25.2659 11.6339 25.2659 11.6013C25.2661 11.5851 25.2949 11.5691 25.3274 11.5691C25.36 11.569 25.4206 11.5523 25.4612 11.532C25.559 11.4831 25.7837 11.381 25.9915 11.2996C26.085 11.2588 26.1622 11.2145 26.1624 11.1941C26.1624 11.1778 26.1996 11.1609 26.2444 11.1609C26.2892 11.1608 26.358 11.145 26.3987 11.1248C26.4353 11.1085 26.5414 11.0591 26.6311 11.0183C26.7207 10.9817 26.8269 10.9333 26.8635 10.9128C26.9043 10.8925 26.9571 10.8758 26.9856 10.8757C27.0752 10.8757 27.1808 10.7419 27.1809 10.6238C27.1809 10.563 27.1651 10.5099 27.1409 10.5095C27.1204 10.5095 27.0999 10.4566 27.0999 10.3914C27.0999 10.3262 27.0709 10.2529 27.0383 10.2244C27.0057 10.1958 26.9778 10.11 26.9778 10.0369C26.9778 9.9594 26.9612 9.89819 26.9368 9.89819C26.9164 9.89816 26.8958 9.84515 26.8958 9.78003C26.8957 9.73132 26.8803 9.67805 26.8586 9.64233L26.8118 9.58374C26.7901 9.54805 26.7737 9.49482 26.7737 9.44604C26.7737 9.38487 26.7572 9.31959 26.7327 9.30737C26.7124 9.29477 26.6926 9.22952 26.6926 9.1687C26.6926 9.10349 26.6636 9.03029 26.6311 9.00171C26.5985 8.97321 26.5696 8.90819 26.5696 8.85522C26.5696 8.80654 26.5538 8.74965 26.5295 8.73706C26.5092 8.72485 26.4885 8.66347 26.4885 8.60229C26.4885 8.54123 26.4596 8.45549 26.427 8.41479C26.3946 8.37 26.3665 8.29278 26.3665 8.23999C26.3665 8.18696 26.3499 8.14624 26.3254 8.14624C26.3052 8.14613 26.2846 8.10956 26.2844 8.06909C26.2844 8.02431 26.2518 7.92976 26.2151 7.85229C26.089 7.60423 26.0813 7.57511 26.0813 7.4978C26.0811 7.45701 26.0522 7.40023 26.0198 7.37183C25.9872 7.34318 25.9593 7.27817 25.9592 7.22534C25.9592 7.17241 25.9426 7.12786 25.9182 7.12769C25.8979 7.12769 25.8772 7.0906 25.8772 7.04175C25.8772 6.99695 25.8484 6.89914 25.8118 6.82983C25.6856 6.59381 25.6731 6.55687 25.6731 6.49585C25.6731 6.45921 25.6451 6.42213 25.6125 6.40991C25.5799 6.39361 25.5511 6.34913 25.551 6.30835C25.551 6.26372 25.5352 6.1987 25.5149 6.15796C25.4945 6.12132 25.4656 6.05967 25.4534 6.0271C25.4412 5.99461 25.4132 5.93762 25.3928 5.90503C25.3603 5.84804 25.3154 5.74586 25.2502 5.57886C25.238 5.54619 25.2089 5.48936 25.1926 5.45679C25.0989 5.29379 25.0628 5.20823 25.0627 5.15112C25.0627 5.11448 25.0338 5.0774 25.0012 5.06519C24.9686 5.04874 24.9397 5.00817 24.9397 4.96753C24.9396 4.92289 24.9239 4.87837 24.8997 4.86597C24.8793 4.85375 24.8586 4.80441 24.8586 4.75952C24.8585 4.71485 24.8296 4.67014 24.7971 4.65796C24.7647 4.64166 24.7367 4.60918 24.7366 4.58081C24.7366 4.51568 24.6187 4.28384 24.5696 4.25464C24.5492 4.23834 24.5325 4.19302 24.5325 4.14819C24.5323 4.10782 24.5164 4.07136 24.5002 4.07104C24.484 4.07104 24.4465 4.02198 24.4221 3.95679C24.357 3.81427 24.2234 3.58242 24.1663 3.52515C24.1459 3.50478 24.1252 3.45146 24.1252 3.41479C24.1251 3.37457 24.1091 3.33838 24.093 3.32983C24.0766 3.32168 23.9541 3.14225 23.8196 2.93042C23.6851 2.71854 23.5624 2.53509 23.5461 2.53101C23.53 2.52267 23.514 2.49017 23.5139 2.45776C23.5139 2.42517 23.4973 2.40015 23.4729 2.40015C23.4527 2.39989 23.432 2.37206 23.4319 2.33569ZM7.59302 14.6531C7.34363 14.6003 6.07698 14.5763 5.99243 14.6208C5.95975 14.6371 5.8575 14.6863 5.76782 14.7312C5.58456 14.8167 5.3155 15.0813 5.27466 15.2117C5.26247 15.2604 5.22636 15.3582 5.1897 15.4314C5.12863 15.5699 5.14853 15.864 5.22192 15.9128C5.24215 15.9251 5.25889 15.9613 5.25903 15.9978C5.25903 16.1119 5.39707 16.3736 5.45825 16.3777C5.49485 16.3777 5.50293 16.4056 5.48267 16.4666C5.44592 16.5847 5.45855 16.9926 5.49927 17.0496C5.51955 17.0701 5.54357 17.1391 5.55981 17.2C5.57202 17.2651 5.60488 17.3141 5.62524 17.3142C5.64963 17.3142 5.6662 17.3469 5.66626 17.3835C5.66626 17.4242 5.75939 17.547 5.86938 17.657C5.9833 17.7668 6.07319 17.8805 6.07349 17.9011C6.07349 17.9256 6.11805 17.9952 6.17505 18.0564C6.23201 18.1173 6.27738 18.1861 6.27759 18.2107C6.27759 18.2351 6.16712 18.2517 6.00415 18.2517C5.83705 18.2517 5.67784 18.2766 5.60864 18.3132C5.54748 18.3457 5.45795 18.3738 5.41724 18.3738C5.37658 18.3738 5.33188 18.3904 5.31958 18.4148C5.29555 18.4561 5.44567 18.7858 5.56372 18.9568C5.65747 19.0912 6.12262 19.5554 6.16333 19.5554C6.18391 19.5557 6.2612 19.6002 6.33423 19.657C6.40762 19.7141 6.50998 19.7595 6.55884 19.7595C6.6077 19.7597 6.67668 19.7876 6.70923 19.8201C6.74598 19.8526 6.80719 19.8816 6.8479 19.8816C6.88868 19.8816 6.93727 19.8981 6.94946 19.9226C6.96195 19.9429 7.04373 19.9626 7.12915 19.9626C7.19024 19.9627 7.25611 19.9742 7.29712 19.9919L7.37524 20.0408C7.52244 20.104 7.93382 20.1384 8.57935 20.1384C9.26379 20.1384 9.73631 20.0889 9.83423 20.0115C9.85863 19.9911 9.96485 19.9632 10.0667 19.9509C10.3476 19.9184 10.5965 19.8573 10.6497 19.8044C10.674 19.78 10.7552 19.7596 10.8245 19.7595C10.8977 19.7595 10.9714 19.7389 10.9836 19.7185C10.9958 19.6941 11.0488 19.6775 11.1018 19.6775C11.1505 19.6775 11.2279 19.6494 11.2727 19.6169C11.3134 19.5844 11.3749 19.5554 11.4075 19.5554C11.493 19.5554 11.7779 19.4215 11.7786 19.3845C11.7786 19.3683 11.8066 19.3524 11.8391 19.3523C11.9164 19.3523 12.0999 19.2377 12.1936 19.1277C12.2833 19.0258 12.2879 18.8098 12.2024 18.6794C12.1454 18.5938 12.1039 18.5779 11.9368 18.5779C11.8314 18.5779 11.7298 18.5937 11.717 18.6179C11.7048 18.6383 11.6394 18.6589 11.5784 18.6589C11.5132 18.659 11.4398 18.6879 11.4114 18.7205C11.3827 18.7529 11.3094 18.781 11.2444 18.781C11.1833 18.781 11.1179 18.7976 11.1057 18.822C11.0934 18.8424 11.0404 18.863 10.9875 18.863C10.9387 18.8631 10.8614 18.891 10.8167 18.9236C10.7758 18.9561 10.666 18.9851 10.5764 18.9851C10.4827 18.9851 10.3888 19.0058 10.3684 19.0261C10.3391 19.0546 10.0987 19.0626 9.67603 19.0544C8.95067 19.03 8.69752 19.0011 8.57935 18.9197C8.53449 18.8871 8.44889 18.863 8.38794 18.863C8.32277 18.863 8.27368 18.8424 8.27368 18.822C8.27357 18.7976 8.22904 18.781 8.17212 18.781C8.12936 18.781 8.09369 18.772 8.07837 18.7605L8.05688 18.7283C8.03067 18.704 7.96885 18.669 7.89868 18.6384C7.69482 18.5487 7.31631 18.2843 7.18188 18.1335C7.09628 18.0358 7.00624 17.8723 6.95728 17.7175C6.93342 17.6403 7.06348 17.5187 7.16919 17.5183C7.2099 17.5183 7.26764 17.4894 7.29614 17.4568C7.32455 17.4244 7.37312 17.3965 7.40161 17.3962C7.46675 17.3962 7.60995 17.3225 7.69556 17.241C7.7241 17.2166 7.77731 17.1921 7.80981 17.1921C7.84198 17.192 7.86614 17.176 7.86646 17.1599C7.86646 17.1436 7.92793 17.0942 8.00122 17.0535C8.1606 16.9592 8.68188 16.4543 8.68188 16.3933C8.68206 16.3688 8.70997 16.3241 8.74243 16.2957C8.77508 16.2672 8.80391 16.2021 8.80396 16.1492C8.80396 16.0966 8.82379 16.0522 8.84399 16.0515C8.86841 16.0515 8.885 15.9209 8.88501 15.7458C8.88501 15.5706 8.86842 15.4402 8.84399 15.4402C8.82378 15.4399 8.80396 15.4194 8.80396 15.3992C8.80367 15.2647 8.1363 14.7885 7.95239 14.7878C7.9158 14.7878 7.86276 14.7675 7.83423 14.739C7.8098 14.7146 7.69898 14.6775 7.59302 14.6531ZM13.3752 12.0828C13.1718 12.0055 13.0294 12.0047 12.8381 12.0779C12.7608 12.1064 12.634 12.1355 12.5647 12.1355C12.4914 12.1396 12.4299 12.156 12.4299 12.1804C12.4296 12.2007 12.3851 12.2205 12.3323 12.2205C12.2794 12.2205 12.2265 12.2494 12.2102 12.282C12.1979 12.3146 12.1568 12.3435 12.1243 12.3435C12.006 12.3442 11.7985 12.6004 11.5422 13.0642C11.5178 13.117 11.4935 13.2027 11.4934 13.2556C11.4934 13.3127 11.4768 13.3704 11.4524 13.3826C11.432 13.3954 11.4114 13.5255 11.4114 13.6677C11.4114 13.8103 11.4319 13.9407 11.4524 13.9529C11.4768 13.9651 11.4934 14.0219 11.4934 14.0789C11.4934 14.1318 11.526 14.209 11.5667 14.2498C11.6034 14.2945 11.6647 14.3643 11.7014 14.405C11.8277 14.5517 12.109 14.7468 12.1985 14.7468C12.2315 14.7471 12.3129 14.7758 12.386 14.8123C12.545 14.8894 13.125 14.8777 13.1555 14.7966C13.1637 14.7681 13.2167 14.7468 13.2698 14.7468C13.3227 14.7468 13.4408 14.7024 13.5305 14.6453C13.62 14.5884 13.7054 14.5439 13.7219 14.5437C13.783 14.5437 14.2216 14.0642 14.2229 13.9978C14.2229 13.9612 14.2435 13.9325 14.2639 13.9324C14.2883 13.9324 14.3049 13.8916 14.3049 13.8386C14.3049 13.7898 14.333 13.7125 14.3655 13.6716C14.447 13.5658 14.447 13.1985 14.3655 13.0925C14.333 13.0517 14.3049 12.9744 14.3049 12.9216C14.3049 12.8728 14.2883 12.8318 14.2639 12.8318C14.2435 12.8316 14.2229 12.7993 14.2229 12.7585C14.2222 12.6766 13.8032 12.2613 13.6526 12.1921C13.5954 12.1677 13.4728 12.1193 13.3752 12.0828ZM12.8176 12.697C13.111 12.6483 13.5305 12.7508 13.5305 12.8689C13.5305 12.9174 13.5184 12.9172 13.4817 12.8806C13.4084 12.8073 13.0745 12.8197 12.9602 12.9011C12.7932 13.0152 12.634 13.1865 12.634 13.2517C12.634 13.2843 12.605 13.3335 12.5725 13.3621C12.5037 13.421 12.4834 14.0114 12.5481 14.0134C12.5685 14.0134 12.6011 14.0544 12.6174 14.1033C12.646 14.1928 12.7479 14.2904 12.8782 14.3474C12.923 14.3679 12.9151 14.3767 12.8499 14.3767C12.797 14.3808 12.7561 14.364 12.7561 14.3435C12.756 14.3232 12.7028 14.2943 12.6418 14.2781C12.487 14.2453 12.2874 14.058 12.1653 13.8259C12.039 13.5857 12.0395 13.5572 12.178 13.2761C12.3124 13.0072 12.4833 12.7908 12.5608 12.7908C12.5933 12.7907 12.634 12.7749 12.6584 12.7546C12.6788 12.7343 12.7525 12.7053 12.8176 12.697ZM8.03735 11.3123C7.81317 11.2023 7.40971 11.1576 7.35669 11.239C7.34403 11.2595 7.27905 11.2882 7.21411 11.3044C7.14547 11.3207 7.09261 11.3486 7.09204 11.3689C7.09204 11.3894 7.05951 11.406 7.0188 11.406C6.88838 11.4063 6.48139 11.8942 6.48071 12.0535C6.48071 12.0983 6.46022 12.139 6.43579 12.1472C6.37495 12.1693 6.36698 12.9615 6.43188 12.9871C6.46038 12.9952 6.48071 13.0239 6.48071 13.0525C6.48123 13.1952 6.88001 13.5248 7.04712 13.5251C7.09189 13.5251 7.17762 13.5454 7.23462 13.574C7.32012 13.6106 7.36107 13.6105 7.42212 13.574C7.46283 13.5454 7.54481 13.5251 7.60181 13.5251C7.80977 13.5248 8.39612 13.0404 8.39673 12.865C8.39673 12.8285 8.4165 12.7838 8.43677 12.7712C8.46115 12.759 8.47772 12.706 8.47778 12.6531C8.47778 12.6001 8.50646 12.4978 8.54321 12.4246C8.60414 12.3026 8.60431 12.2778 8.53931 12.0623C8.49849 11.9359 8.45322 11.801 8.43286 11.7644C8.41254 11.7236 8.39673 11.6708 8.39673 11.6423C8.39266 11.5486 8.25732 11.4304 8.03735 11.3123ZM14.6223 0.000732422C15.2702 -0.00334967 15.4787 0.00847362 15.5969 0.057373C15.6744 0.0899218 15.8289 0.118896 15.9387 0.118896C16.0447 0.118902 16.1462 0.135466 16.1584 0.159912C16.171 0.180232 16.2447 0.199951 16.3137 0.199951C16.3871 0.204056 16.4892 0.228903 16.5461 0.261475C16.6033 0.294001 16.7092 0.317956 16.7825 0.322021C16.8515 0.322062 16.912 0.338727 16.9124 0.363037C16.9124 0.383349 16.945 0.40392 16.9856 0.404053C17.0222 0.404053 17.108 0.432993 17.1731 0.465576C17.234 0.498057 17.3235 0.52591 17.3645 0.526123C17.4093 0.526123 17.4426 0.542689 17.4426 0.567139C17.4428 0.587427 17.4668 0.608088 17.4993 0.608154C17.5521 0.608154 17.8045 0.725304 17.8499 0.770264C17.8621 0.782489 17.9438 0.827985 18.0334 0.872803C18.1231 0.91765 18.2534 0.994851 18.3225 1.0437C18.3916 1.09653 18.4688 1.13723 18.4934 1.13745C18.5218 1.13745 18.542 1.14953 18.5422 1.16968C18.5422 1.18598 18.6036 1.23146 18.677 1.27222C18.7463 1.31301 18.8891 1.41911 18.9827 1.50464C19.0804 1.59418 19.1742 1.66675 19.1946 1.66675C19.2439 1.66724 20.3388 2.767 20.4778 2.95483C20.5429 3.0402 20.6246 3.14157 20.6614 3.17847C20.694 3.21106 20.7956 3.34613 20.8811 3.47241C20.9708 3.59873 21.057 3.70483 21.0774 3.70483C21.0935 3.70511 21.1095 3.73308 21.1096 3.76538C21.1096 3.82651 21.1345 3.86788 21.2649 4.0105C21.2892 4.03914 21.3137 4.09619 21.3137 4.12866C21.3138 4.165 21.3297 4.19283 21.3499 4.19312C21.3702 4.19312 21.3992 4.23863 21.4114 4.29565C21.4277 4.35263 21.4565 4.39722 21.4768 4.39722C21.5011 4.39747 21.5168 4.42621 21.5168 4.45874C21.517 4.47713 21.5288 4.51048 21.5471 4.55054L21.6917 4.81421C21.7097 4.85343 21.7207 4.88571 21.7209 4.9021C21.7209 4.93467 21.7416 4.97582 21.762 4.98804C21.7862 5.00034 21.8019 5.04896 21.802 5.0896C21.802 5.13023 21.831 5.1915 21.8635 5.22827C21.8961 5.2608 21.925 5.33428 21.925 5.39136C21.925 5.44804 21.9409 5.50084 21.9612 5.51343C21.9815 5.52562 22.0105 5.60319 22.0227 5.68042C22.035 5.73877 22.0541 5.79046 22.0715 5.81226L22.1047 5.83374C22.1197 5.85445 22.1281 5.90365 22.1282 5.96167C22.1282 6.0389 22.1489 6.11609 22.1692 6.12866C22.1936 6.14088 22.2102 6.22275 22.2102 6.30835C22.2102 6.3694 22.2256 6.44432 22.2473 6.49683L22.2942 6.58472C22.316 6.64117 22.3322 6.7298 22.3323 6.80933C22.3323 6.9145 22.3483 7.00792 22.3684 7.02124C22.3847 7.03345 22.4138 7.1768 22.426 7.33569C22.4383 7.49847 22.471 7.64918 22.4954 7.67358C22.5319 7.7157 22.5603 9.97628 22.5198 9.98022C22.5157 9.98022 22.4216 9.93479 22.3157 9.87769C22.2099 9.82074 22.0917 9.77612 22.0549 9.77612C22.0183 9.77606 21.9492 9.74713 21.9084 9.7146C21.8637 9.68212 21.7864 9.65416 21.7375 9.65405C21.6846 9.65405 21.6317 9.63335 21.6194 9.61304C21.6072 9.58861 21.5333 9.57202 21.4641 9.57202C21.3907 9.57198 21.2968 9.54402 21.2561 9.51147C21.2113 9.47892 21.1176 9.44995 21.0442 9.44995C20.971 9.4499 20.8982 9.42937 20.886 9.40894C20.8736 9.38456 20.7834 9.3689 20.6858 9.3689C20.5924 9.36887 20.4949 9.34841 20.4661 9.32007C20.4213 9.27519 20.2297 9.23772 19.7043 9.17261C19.57 9.15623 19.4314 9.12363 19.3987 9.10327C19.3416 9.06663 19.2188 9.0463 18.4202 8.96069C18.2288 8.94035 17.9927 8.90796 17.8909 8.88354C17.6586 8.83062 16.2195 8.82671 16.1379 8.87964C16.0976 8.90399 16.0941 8.92853 16.1184 8.95288C16.18 9.00987 16.571 9.09188 16.8723 9.10815C17.0187 9.12037 17.1731 9.14447 17.218 9.16479C17.2629 9.18526 17.4061 9.2141 17.5325 9.22632C17.6618 9.24251 17.7749 9.27047 17.7883 9.29077C17.8046 9.31124 17.9031 9.32788 18.009 9.32788C18.1145 9.3279 18.2159 9.34 18.2327 9.3562C18.2735 9.39689 18.701 9.49073 18.97 9.51929C19.0837 9.53146 19.1818 9.55574 19.1946 9.57202C19.219 9.60866 19.5652 9.6908 19.8381 9.72339C19.9318 9.73559 20.0089 9.75968 20.009 9.78003C20.009 9.79631 20.0787 9.82543 20.1643 9.83765C20.2455 9.84982 20.3471 9.87772 20.384 9.9021C20.4249 9.92245 20.5147 9.93921 20.5881 9.93921C20.6613 9.93921 20.7591 9.96726 20.8 9.99976C20.8448 10.0323 20.9303 10.0612 20.9954 10.0613C21.0565 10.0613 21.1096 10.0779 21.1096 10.1023C21.1101 10.1226 21.1713 10.1423 21.2444 10.1423C21.3137 10.1424 21.4116 10.1712 21.4524 10.2039C21.4972 10.2364 21.5743 10.2654 21.6272 10.2654C21.6799 10.2654 21.7206 10.2812 21.7209 10.3054C21.7209 10.3259 21.7657 10.3464 21.8186 10.3464C21.8674 10.3464 21.9979 10.391 22.1038 10.448C22.2097 10.505 22.3203 10.5505 22.3489 10.5505C22.3813 10.5507 22.4258 10.5787 22.4543 10.6111C22.4827 10.6435 22.5395 10.6724 22.5803 10.6726C22.6251 10.6726 22.6584 10.6891 22.6584 10.7136C22.6588 10.7339 22.691 10.7537 22.7356 10.7537C22.7763 10.7537 22.8329 10.7827 22.8616 10.8152C22.89 10.8477 22.9309 10.8765 22.9553 10.8767C22.9758 10.8767 23.0577 10.9212 23.1311 10.9783C23.2043 11.0352 23.2779 11.0798 23.2942 11.0798C23.3367 11.0821 23.7559 11.5139 23.7581 11.5564C23.7581 11.5727 23.8035 11.6379 23.8606 11.699C23.9173 11.7598 23.9617 11.837 23.9622 11.866C23.9622 11.8985 23.9911 11.9477 24.0237 11.9763C24.0562 12.0049 24.0842 12.0625 24.0842 12.1033C24.0844 12.1478 24.1049 12.1804 24.1252 12.1804C24.1496 12.1805 24.1663 12.2335 24.1663 12.2986C24.1663 12.3639 24.1943 12.4699 24.2268 12.531C24.296 12.6695 24.3043 12.8447 24.2473 12.9587C24.2106 13.0197 24.1575 13.0359 23.9827 13.0359C23.8645 13.0359 23.7507 13.0152 23.7385 12.9949C23.7263 12.9704 23.673 12.9549 23.6243 12.9548C23.5754 12.9548 23.4982 12.9258 23.4573 12.8933C23.4125 12.8606 23.3344 12.8318 23.2815 12.8318C23.2289 12.8318 23.1882 12.812 23.1877 12.7917C23.1877 12.7674 23.1514 12.7508 23.1028 12.7507C23.0579 12.7507 22.9675 12.7257 22.9104 12.6931C22.8494 12.6646 22.7481 12.6162 22.679 12.5876C22.614 12.5633 22.5039 12.5147 22.4426 12.4822C22.3775 12.4495 22.2911 12.4246 22.2463 12.4246C22.2057 12.4245 22.1692 12.4039 22.1692 12.3835C22.1688 12.3593 22.1281 12.3435 22.0754 12.3435C22.0225 12.3435 21.9455 12.3145 21.9006 12.282C21.86 12.2495 21.7825 12.2206 21.7336 12.2205C21.6849 12.2205 21.632 12.2007 21.6194 12.1804C21.6072 12.156 21.554 12.1395 21.5012 12.1394C21.4524 12.1394 21.3741 12.1106 21.3293 12.0779C21.2883 12.0455 21.2028 12.0173 21.1418 12.0173C21.0809 12.0173 21.0202 12.0007 21.0081 11.9763C20.9958 11.9518 20.9428 11.9354 20.8899 11.9353C20.8412 11.9353 20.7638 11.9072 20.719 11.8748C20.6783 11.8422 20.5843 11.8133 20.511 11.8132C20.4418 11.8132 20.3679 11.7926 20.3557 11.7722C20.3429 11.748 20.2777 11.7322 20.217 11.7322C20.1559 11.7321 20.0705 11.7032 20.0256 11.6707C19.9849 11.6382 19.8794 11.6102 19.7981 11.6101C19.7167 11.6101 19.6348 11.5895 19.6223 11.5691C19.6101 11.5447 19.5372 11.5282 19.468 11.5281C19.3948 11.5281 19.2843 11.5001 19.219 11.4675C19.158 11.4349 19.0155 11.4061 18.9055 11.406C18.8228 11.406 18.7512 11.397 18.7209 11.3855L18.6819 11.3562C18.575 11.3107 18.1263 11.236 17.8088 11.2146C17.6628 11.2065 17.5087 11.1822 17.4631 11.1619C17.3573 11.113 16.7048 11.0395 16.0569 10.9988C15.7757 10.9825 15.5109 10.9576 15.4661 10.9412C15.3639 10.9086 14.4999 10.8317 13.9377 10.8113C13.7017 10.7991 13.4741 10.774 13.429 10.7537C13.3352 10.7048 12.7111 10.6358 12.1448 10.6033C11.9329 10.5951 11.7376 10.566 11.7131 10.5457C11.6635 10.505 11.2643 10.4523 10.6174 10.3953C10.4381 10.379 10.266 10.351 10.2375 10.3347C10.1798 10.2979 9.72004 10.2284 9.33325 10.2C9.18649 10.1877 9.01112 10.1505 8.93774 10.1179C8.8684 10.0895 8.72988 10.0613 8.62817 10.0613C8.52636 10.0613 8.42847 10.0406 8.41626 10.0203C8.40337 9.99599 8.29377 9.98022 8.17603 9.98022C8.06203 9.98022 7.94356 9.95957 7.9231 9.93921C7.88199 9.89839 7.51972 9.83352 7.11255 9.79272C7.00257 9.78052 6.852 9.74325 6.77856 9.71069C6.70946 9.67818 6.57917 9.65413 6.4895 9.65405C6.39575 9.65405 6.30933 9.63339 6.29712 9.61304C6.28452 9.58872 6.1953 9.57202 6.10181 9.57202C6.00838 9.57199 5.89489 9.5439 5.85376 9.51147C5.80899 9.47891 5.69456 9.44997 5.60083 9.44995C5.50301 9.44995 5.41383 9.4294 5.40161 9.40894C5.3893 9.38456 5.3074 9.36892 5.22192 9.3689C5.14067 9.3689 5.05113 9.34819 5.03052 9.32788C4.9897 9.28706 4.72026 9.22635 4.38208 9.17749C4.29248 9.16514 4.18272 9.12784 4.13794 9.09937C4.09309 9.06683 3.99932 9.04273 3.92603 9.04272C3.85676 9.04272 3.78298 9.02207 3.77075 9.00171C3.7581 8.97741 3.67261 8.96069 3.58325 8.96069C3.4898 8.9606 3.3923 8.93272 3.35962 8.90015C3.32294 8.86758 3.24513 8.83862 3.17993 8.83862C3.11505 8.83855 3.04985 8.81884 3.03735 8.79858C3.02515 8.7741 2.96457 8.75763 2.90356 8.75757C2.84249 8.75757 2.75685 8.72858 2.71606 8.69604C2.67125 8.66347 2.60154 8.6355 2.56079 8.6355C2.48346 8.63549 2.45491 8.62243 2.20239 8.48804C1.99057 8.37803 1.95769 8.33714 2.0188 8.25562C2.04723 8.21919 2.08801 8.18748 2.11646 8.18726C2.14083 8.18726 2.16126 8.16664 2.16138 8.14624C2.16138 8.12182 2.21044 8.10523 2.27563 8.10522C2.33669 8.10116 2.43049 8.0772 2.48755 8.04468C2.5446 8.012 2.66726 7.98723 2.76099 7.98315C2.85456 7.9831 2.94409 7.96247 2.9563 7.94214C2.96914 7.91785 3.07893 7.9021 3.19263 7.9021C3.31078 7.90208 3.45753 7.87314 3.52271 7.84058C3.58384 7.80804 3.72622 7.77908 3.83618 7.77905C3.94124 7.77905 4.0423 7.7592 4.05591 7.73901C4.06813 7.71459 4.15006 7.69801 4.2356 7.698C4.3171 7.698 4.42319 7.66905 4.46802 7.63647C4.50884 7.60387 4.58254 7.57593 4.62329 7.57593C4.78294 7.5748 5.42114 6.98012 5.42114 6.83765C5.42136 6.80112 5.45022 6.76023 5.48267 6.7439C5.51524 6.73153 5.54419 6.6831 5.54419 6.63843C5.5442 6.59372 5.56395 6.55764 5.58423 6.55737C5.60866 6.55737 5.62524 6.52414 5.62524 6.47925C5.62535 6.43855 5.65426 6.38183 5.68677 6.35327C5.71914 6.32483 5.7471 6.26801 5.74731 6.22729C5.74731 6.18251 5.76797 6.14917 5.78833 6.14917C5.8127 6.14907 5.82934 6.11278 5.82935 6.07202C5.82935 6.02726 5.84497 5.97782 5.86938 5.96558C5.88985 5.95335 5.93902 5.8723 5.97974 5.79077C6.0165 5.70922 6.08981 5.57041 6.14282 5.48901C6.19566 5.40348 6.23657 5.30979 6.23657 5.27319C6.23663 5.2407 6.2531 5.21265 6.27759 5.21265C6.29792 5.21215 6.32585 5.16679 6.34204 5.11011C6.35428 5.05311 6.38313 5.00854 6.40356 5.00854C6.42387 5.00854 6.44059 4.97611 6.44067 4.9314C6.44067 4.911 6.44702 4.886 6.45825 4.86304L6.54419 4.74585C6.5553 4.72304 6.56273 4.69878 6.56274 4.67847C6.56274 4.63372 6.57465 4.60138 6.59497 4.60132C6.61125 4.60132 6.6607 4.52789 6.70142 4.43823C6.74591 4.34925 6.7941 4.27609 6.8147 4.27515C6.83093 4.27515 6.8478 4.23859 6.8479 4.198C6.8479 4.15318 6.86839 4.11239 6.89282 4.10425C6.91747 4.09573 6.97794 4.02228 7.02661 3.94116C7.37708 3.35032 8.29015 2.44547 9.16626 1.82202C9.31294 1.71607 9.45612 1.61014 9.48462 1.58569C9.51295 1.5655 9.55301 1.54489 9.57739 1.54468C9.5977 1.54468 9.61811 1.52485 9.61841 1.50464C9.61841 1.48019 9.63907 1.46362 9.65942 1.46362C9.68395 1.46352 9.75746 1.42636 9.82251 1.38159C9.89184 1.33676 9.99754 1.26327 10.0667 1.21851C10.1319 1.17372 10.2135 1.13745 10.2502 1.13745C10.2828 1.13744 10.3118 1.12071 10.3118 1.10034C10.3124 1.08 10.3567 1.05193 10.4133 1.03979C10.456 1.02758 10.4918 1.00832 10.5071 0.990967L10.5227 0.957764C10.5379 0.942792 10.5745 0.93335 10.6174 0.93335C10.6739 0.93324 10.7185 0.913508 10.719 0.893311C10.719 0.868875 10.7514 0.852314 10.7961 0.852295C10.8368 0.852295 10.8936 0.823352 10.9221 0.790771C10.9506 0.758232 11.012 0.730336 11.0608 0.730225C11.1056 0.730225 11.1832 0.701294 11.2239 0.668701C11.2688 0.636109 11.3383 0.608154 11.3792 0.608154C11.4197 0.608095 11.4522 0.587432 11.4524 0.567139C11.4524 0.542694 11.4971 0.526129 11.55 0.526123C11.6029 0.526123 11.7008 0.498128 11.762 0.465576C11.8271 0.432984 11.9209 0.404053 11.9739 0.404053C12.0228 0.40404 12.0637 0.383409 12.0637 0.363037C12.064 0.338748 12.1245 0.32209 12.1975 0.322021C12.2667 0.317957 12.3728 0.293993 12.4299 0.261475C12.4869 0.228882 12.5976 0.204033 12.675 0.199951C12.7559 0.199913 12.8368 0.184015 12.8577 0.163818C12.8821 0.143462 13.0291 0.114373 13.1838 0.106201C13.3426 0.0939887 13.5424 0.0700792 13.6321 0.0456543C13.7217 0.0252898 14.166 0.00480816 14.6223 0.000732422ZM7.36157 11.8542C7.50818 11.7608 7.75596 11.7525 7.82544 11.8337C7.85394 11.8663 7.91168 11.8953 7.95239 11.8953C8.001 11.8954 8.0297 11.9239 8.02563 11.9646C8.02557 12.0091 8.0134 12.0166 8.00122 11.9841C7.97586 11.9273 7.62288 11.9154 7.62231 11.9763C7.62231 11.9967 7.59336 12.0173 7.56079 12.0173C7.49157 12.0174 7.29681 12.2162 7.29614 12.2898C7.29614 12.3183 7.27966 12.3435 7.25513 12.3435C7.23477 12.3435 7.21411 12.3762 7.21411 12.4128C7.21391 12.4536 7.186 12.5227 7.15356 12.5632C7.12092 12.6081 7.0921 12.7179 7.09204 12.8074V12.9744L7.03149 12.8562C6.96225 12.7256 6.94994 12.3186 7.01099 12.282C7.03535 12.2696 7.05103 12.2286 7.05103 12.196C7.05154 12.1226 7.20295 11.956 7.36157 11.8542ZM8.98657 9.00171C8.95361 8.94909 8.7752 8.94887 8.74243 9.00562C8.70579 9.05865 8.83662 9.20581 8.92212 9.20581C8.95896 9.206 9.03979 9.23399 9.10474 9.26636C9.16567 9.29896 9.26364 9.32776 9.31665 9.32788C9.36561 9.32788 9.4226 9.34447 9.43481 9.3689C9.44707 9.38915 9.49205 9.4088 9.52856 9.40894C9.56515 9.40894 9.65085 9.43795 9.71606 9.47046C9.7771 9.50301 9.88333 9.53195 9.94849 9.53198C10.0096 9.53198 10.0708 9.5478 10.0872 9.56812C10.0995 9.59254 10.1934 9.62117 10.2913 9.63745C10.393 9.64969 10.4871 9.67864 10.4993 9.69897C10.5123 9.71912 10.5891 9.73511 10.6741 9.73511C10.7554 9.73512 10.8447 9.75567 10.8694 9.78003C10.9142 9.82491 11.1425 9.88596 11.4114 9.92261C11.4887 9.93493 11.5911 9.9597 11.636 9.98413C11.7465 10.033 12.166 10.1017 12.634 10.1423C12.846 10.1627 13.1314 10.1962 13.2659 10.2166C13.4007 10.2409 13.8079 10.2605 14.1702 10.2605C14.8179 10.2646 15.0954 10.224 15.01 10.1384C14.9652 10.0937 14.6309 10.0244 14.3254 9.99585C14.2154 9.98364 14.0639 9.94747 13.9905 9.91479C13.9213 9.8823 13.8076 9.8572 13.7424 9.85718C13.6737 9.85718 13.605 9.83735 13.592 9.81714C13.5798 9.7926 13.4775 9.77612 13.3674 9.77612C13.2535 9.77612 13.1639 9.75574 13.1555 9.72729C13.1473 9.70289 13.0336 9.6741 12.9075 9.66187C12.7776 9.65376 12.6636 9.62944 12.6506 9.60913C12.6383 9.58879 12.5324 9.57205 12.4143 9.57202C12.3002 9.57202 12.1819 9.55164 12.1575 9.5271C12.1123 9.48233 11.77 9.42142 11.3098 9.38062C11.1753 9.3684 11.0405 9.33961 11.012 9.31519C10.9825 9.29071 10.8284 9.25817 10.6663 9.24194C10.1775 9.18498 9.85123 9.13647 9.67993 9.08765C9.59036 9.06322 9.40245 9.04272 9.26392 9.04272C9.12544 9.04271 8.99878 9.02206 8.98657 9.00171ZM15.6575 3.58667C15.5883 3.55 14.4635 3.50444 14.3372 3.53296C14.2842 3.54114 14.264 3.59041 14.2639 3.69604C14.2598 3.77754 14.235 3.89192 14.2024 3.94897C14.1699 4.00607 14.1459 4.12876 14.1418 4.22241C14.1418 4.31596 14.1252 4.40553 14.1008 4.41772C14.0805 4.43021 14.0598 4.51573 14.0598 4.60522C14.0598 4.78437 14.0192 4.80102 13.7913 4.71558C13.6853 4.67883 13.636 4.67866 13.5627 4.71948C13.4569 4.77684 13.3265 5.02885 13.3264 5.17944C13.3264 5.32205 13.5717 5.53784 13.7346 5.53784C13.8401 5.53787 13.8567 5.55056 13.8567 5.6521C13.8567 5.71714 13.8277 5.80257 13.7952 5.84741C13.7625 5.88823 13.7346 6.01098 13.7346 6.11694C13.7346 6.22263 13.718 6.32031 13.6936 6.33276C13.6732 6.34498 13.6526 6.4306 13.6526 6.52026C13.6526 6.60983 13.6238 6.74017 13.5872 6.80542C13.4975 6.9846 13.5264 7.14357 13.6526 7.15991C13.7097 7.16805 13.8117 7.20058 13.885 7.23315C13.9543 7.26582 14.0927 7.29075 14.1946 7.29077C14.296 7.29077 14.3937 7.30653 14.4065 7.33081C14.4228 7.35524 14.7 7.37183 15.1116 7.37183C15.7798 7.37182 16.0286 7.33473 16.1467 7.21655C16.1753 7.18823 16.2284 7.16772 16.2649 7.16772C16.3055 7.16768 16.3416 7.15173 16.3499 7.1355C16.358 7.11911 16.4322 7.05019 16.5178 6.98901C16.5993 6.92392 16.6682 6.85408 16.6682 6.83374C16.6686 6.81318 16.713 6.7566 16.7698 6.70386C16.8267 6.65099 16.8722 6.57745 16.8723 6.54077C16.8723 6.50413 16.8883 6.47534 16.9045 6.47534C16.9413 6.47492 17.0754 6.18979 17.0754 6.10425C17.0756 6.07162 17.1045 6.01114 17.137 5.97046C17.1695 5.92572 17.1974 5.83179 17.1975 5.75854C17.1975 5.68523 17.2181 5.61169 17.2385 5.59937C17.2915 5.56669 17.2913 4.77647 17.2424 4.7439C17.222 4.73153 17.1933 4.66631 17.177 4.60132C17.1608 4.53227 17.1329 4.47966 17.1125 4.47925C17.0922 4.47925 17.0756 4.45868 17.0754 4.43433C17.0754 4.29996 16.5547 3.82757 16.4036 3.8269C16.371 3.8269 16.342 3.80626 16.342 3.78589C16.3418 3.76154 16.3011 3.74487 16.2483 3.74487C16.1954 3.74483 16.1184 3.7168 16.0735 3.68433C16.0328 3.65176 15.9348 3.62287 15.8616 3.6228C15.7882 3.6228 15.6942 3.60703 15.6575 3.58667ZM15.0588 4.24292C15.0834 4.17776 15.1806 4.18147 15.384 4.25464C15.4736 4.28718 15.5962 4.31611 15.6614 4.31616C15.7226 4.31616 15.7717 4.33275 15.7717 4.35718C15.7723 4.3774 15.8167 4.39721 15.8694 4.39722C15.9223 4.39722 15.9873 4.42609 16.0159 4.45874C16.0443 4.49128 16.0853 4.51923 16.1057 4.51929C16.1668 4.51929 16.3701 4.73571 16.3987 4.83765C16.4149 4.88617 16.4475 4.92694 16.468 4.92749C16.4884 4.92749 16.5051 5.06978 16.5051 5.24097C16.5051 5.50576 16.4851 5.59159 16.3792 5.80737C16.2569 6.06001 15.9101 6.47534 15.8245 6.47534C15.8 6.47539 15.747 6.50808 15.7063 6.54468C15.6451 6.60575 15.5555 6.61809 15.0911 6.61401C14.7942 6.61401 14.538 6.60193 14.5208 6.58569C14.5045 6.56941 14.525 6.50038 14.5618 6.43921C14.5983 6.37421 14.631 6.26428 14.6311 6.19897C14.6311 6.12982 14.6508 6.05991 14.6711 6.04761C14.6957 6.03539 14.7122 5.95797 14.7122 5.88062V5.74194H15.0461C15.4618 5.74194 15.5266 5.69735 15.5266 5.40405C15.5266 5.13932 15.4334 5.04964 15.1526 5.04956C14.9204 5.04956 14.8708 4.98426 14.9563 4.78882C14.9848 4.71966 15.0175 4.58112 15.0256 4.47925C15.0338 4.3775 15.0507 4.27162 15.0588 4.24292ZM18.6038 2.15601C18.3308 2.03379 18.2123 2.02541 18.0657 2.11499C17.8783 2.22907 17.8906 2.34765 18.1145 2.57983C18.2162 2.6815 18.3221 2.76699 18.3508 2.76733C18.3794 2.76733 18.4489 2.81192 18.51 2.8689C18.5709 2.92575 18.648 2.97114 18.6848 2.97144C18.7173 2.97144 18.7461 2.98729 18.7463 3.00757C18.7463 3.07275 18.9947 3.17452 19.1497 3.17456C19.2719 3.17456 19.3124 3.15418 19.3694 3.0564C19.4061 2.9912 19.4387 2.90181 19.4387 2.86108C19.4387 2.77143 19.137 2.45342 19.0149 2.41675C18.97 2.40033 18.8966 2.35597 18.8518 2.31128C18.8029 2.26647 18.6934 2.19673 18.6038 2.15601ZM16.7659 1.32104C16.6234 1.24779 16.2615 1.23935 16.1672 1.30835C16.0694 1.38577 16.0238 1.54535 16.0686 1.64722C16.1139 1.741 16.5133 1.95284 16.6477 1.95288C16.6925 1.95288 16.7662 1.98082 16.8069 2.01343C16.8518 2.04599 16.9372 2.07495 16.9983 2.07495C17.0591 2.07497 17.1244 2.09068 17.137 2.11499C17.1492 2.13531 17.2219 2.15592 17.2952 2.15601C17.4622 2.15601 17.6056 2.01361 17.6057 1.84253C17.6057 1.72029 17.4991 1.58569 17.4094 1.58569C17.3811 1.58557 17.3606 1.56903 17.3606 1.54468C17.36 1.52432 17.2952 1.49548 17.218 1.47925C17.1409 1.46702 17.0756 1.43905 17.0754 1.4187C17.0754 1.39832 17.0307 1.38159 16.9778 1.38159C16.9247 1.38157 16.8269 1.35362 16.7659 1.32104ZM14.7737 1.0437C14.3011 0.982577 13.962 0.974129 13.8723 1.0271C13.7013 1.12484 13.6526 1.19055 13.6526 1.30054C13.6526 1.43904 13.7672 1.54468 13.9221 1.54468C13.9912 1.54476 14.0645 1.56506 14.093 1.59351C14.1215 1.62203 14.3252 1.64671 14.5901 1.65894C15.1193 1.67928 15.2413 1.63461 15.2415 1.41089C15.2415 1.21132 15.0791 1.0845 14.7737 1.0437Z" fill="#FAFAFA"/>
</svg>
