<svg width="25" height="30" viewBox="0 0 25 30" fill="none" xmlns="http://www.w3.org/2000/svg">
<path d="M24.3671 2.91897H24.3791V0H15.0457C13.0141 0 11.0423 0.393161 9.18997 1.17951C7.39739 1.93009 5.78407 3.0143 4.40974 4.39635C3.02348 5.7784 1.94795 7.3749 1.1831 9.16203C0.585564 10.5679 0.215111 12.0334 0.0717126 13.5465C0.0239131 14.023 0 14.5115 0 15C0 15.4884 0.0239131 15.9771 0.0717126 16.4534C0.215111 17.9666 0.585564 19.4321 1.1831 20.8378C1.93598 22.6252 3.02348 24.2337 4.40974 25.6035C5.79601 26.9858 7.39739 28.0579 9.18997 28.8205C11.0423 29.6069 13.0141 30 15.0457 30H24.3791L24.3671 2.91897ZM6.4772 6.45751C8.56855 4.37252 11.3052 3.13343 14.233 2.9428L18.9176 11.0326L10.9228 6.42176L9.46482 8.94757L17.4598 13.5465H3.01153C3.33421 10.8658 4.52926 8.38762 6.4772 6.45751ZM14.233 27.069C11.3052 26.8784 8.56855 25.6394 6.4772 23.5543C4.52926 21.6125 3.33421 19.1343 3.01153 16.4655H17.4478L9.45288 21.0644L10.9109 23.5902L18.9059 18.9913L14.233 27.069ZM21.4512 27.1049H17.5913L21.4512 20.4448V27.1049ZM21.4512 9.5671L17.6031 2.90706H21.4512V9.5671Z" fill="#FAFAFA"/>
</svg>
