<svg width="30" height="30" viewBox="0 0 30 30" fill="none" xmlns="http://www.w3.org/2000/svg">
<path d="M18.8672 23.5146C19.1135 23.6054 18.1287 25.8274 17.4922 26.5986C15.3571 29.2969 11.5793 30.1135 5.79004 29.1611C3.01874 28.7077 1.45798 28.8206 0.595703 29.5234L0 30L0.143555 29.4785C0.410449 28.4808 1.39625 27.3473 2.60742 26.667L3.79785 25.9863L9.25879 25.9639C14.3092 25.9639 14.8229 25.9184 16.0957 25.4648C16.9373 25.1474 17.7172 24.6712 18.1484 24.2178C18.5175 23.8328 18.8459 23.493 18.8672 23.5146ZM26.2588 12.4053C27.3262 10.5693 27.1203 13.1543 25.9912 15.6484C24.7183 18.4601 21.7829 20.9774 18.3135 22.2246C16.3016 22.9502 13.7353 23.3355 9.0752 23.585C4.08665 23.8343 2.58729 24.2422 1.29395 25.6025L0.472656 26.4648L0.595703 25.7617C0.780487 24.5146 1.88965 22.3148 2.73145 21.4531C4.12742 20.0702 6.17997 19.1405 8.97168 18.6416C10.3267 18.3922 12.955 17.9162 14.8232 17.5986C21.3723 16.4195 24.8218 14.8542 26.2588 12.4053ZM29.9795 0.974609C30.1642 3.51433 29.0351 6.68919 27.1875 8.88867C25.6272 10.7708 24.2106 11.8819 21.8906 13.1064C19.5297 14.331 17.1275 15.0116 12.9805 15.6465C11.2355 15.9186 9.24391 16.2359 8.56641 16.3721C5.6308 16.9162 3.53706 18.0726 2.71582 19.5918L2.30469 20.3174V19.5918C2.30469 17.5963 3.63994 14.7386 5.24121 13.3555C7.2118 11.6097 7.91074 11.2919 14.1514 9.5459C16.8405 8.77504 20.0015 7.80019 21.1924 7.34668C25.6474 5.69135 28.4403 3.60544 29.4463 1.13379L29.918 0L29.9795 0.974609Z" fill="#FAFAFA"/>
</svg>
