<svg width="18" height="22" viewBox="0 0 18 22" fill="none" xmlns="http://www.w3.org/2000/svg">
<g clip-path="url(#clip0_61_36)">
<path d="M5.09032 12.4138L11.555 5.93101C13.2057 4.27568 13.2057 1.65533 11.555 0L1.17018 10.4139C-0.342368 11.9307 -0.412049 14.345 1.1017 15.8618L1.23866 15.9992C1.85738 16.7582 2.82089 17.3099 3.85168 17.3786C2.26945 15.5161 3.16449 14.3438 5.08912 12.4126L5.09032 12.4138Z" fill="#FAFAFA"/>
<path d="M16.7607 5.24672L16.6237 5.10937C16.005 4.35038 15.0415 3.7986 14.0107 3.72993C15.5929 5.59248 14.6979 6.76471 12.7733 8.69593L6.30859 15.1787C4.65788 16.8341 4.65788 19.4544 6.30859 21.1097L16.6934 10.6958C18.206 9.17904 18.2756 6.76471 16.7619 5.24792L16.7607 5.24672Z" fill="#FAFAFA"/>
</g>
<defs>
<clipPath id="clip0_61_36">
<rect width="17.8611" height="21.1085" fill="white"/>
</clipPath>
</defs>
</svg>
