<svg width="111" height="23" viewBox="0 0 111 23" fill="none" xmlns="http://www.w3.org/2000/svg">
<g clip-path="url(#clip0_61_35)">
<path d="M5.09032 12.4138L11.555 5.93101C13.2057 4.27568 13.2057 1.65533 11.555 0L1.17018 10.4139C-0.342368 11.9307 -0.412049 14.345 1.1017 15.8618L1.23866 15.9992C1.85738 16.7582 2.82089 17.3099 3.85168 17.3786C2.26945 15.5161 3.16449 14.3438 5.08912 12.4126L5.09032 12.4138Z" fill="#FAFAFA"/>
<path d="M16.7607 5.24672L16.6237 5.10937C16.005 4.35038 15.0415 3.7986 14.0107 3.72993C15.5929 5.59248 14.6979 6.76471 12.7733 8.69593L6.30859 15.1787C4.65788 16.8341 4.65788 19.4544 6.30859 21.1097L16.6934 10.6958C18.206 9.17904 18.2756 6.76471 16.7619 5.24792L16.7607 5.24672Z" fill="#FAFAFA"/>
</g>
<path d="M25.5224 18.0543V2.11216H28.4103V15.6334H35.4317V18.0543H25.5224ZM39.9391 18.2956C39.1814 18.2956 38.499 18.1607 37.8918 17.8908C37.2898 17.6158 36.8124 17.211 36.4595 16.6765C36.1118 16.1419 35.938 15.4829 35.938 14.6993C35.938 14.0246 36.0625 13.4668 36.3116 13.0257C36.5607 12.5845 36.9006 12.2317 37.3314 11.967C37.7621 11.7023 38.2473 11.5025 38.787 11.3676C39.3319 11.2275 39.895 11.1263 40.4762 11.064C41.1768 10.9914 41.745 10.9265 42.1809 10.8694C42.6169 10.8071 42.9334 10.7137 43.1306 10.5892C43.333 10.4595 43.4342 10.2597 43.4342 9.9898V9.9431C43.4342 9.35669 43.2603 8.90261 42.9127 8.58086C42.565 8.25911 42.0642 8.09823 41.4103 8.09823C40.7201 8.09823 40.1726 8.24873 39.7678 8.54972C39.3682 8.85071 39.0984 9.20619 38.9583 9.61616L36.3272 9.24252C36.5348 8.51599 36.8773 7.90882 37.3547 7.42101C37.8321 6.928 38.416 6.55955 39.1062 6.31565C39.7964 6.06655 40.5592 5.942 41.3947 5.942C41.9708 5.942 42.5442 6.00947 43.115 6.14439C43.6859 6.27932 44.2074 6.50247 44.6797 6.81384C45.1519 7.12002 45.5308 7.53777 45.8162 8.0671C46.1068 8.59643 46.2521 9.25808 46.2521 10.0521V18.0543H43.5432V16.4118H43.4498C43.2785 16.7439 43.0372 17.0553 42.7258 17.3459C42.4197 17.6313 42.033 17.8623 41.566 18.0387C41.1041 18.21 40.5618 18.2956 39.9391 18.2956ZM40.6708 16.225C41.2364 16.225 41.7269 16.1134 42.142 15.8903C42.5572 15.6619 42.8763 15.3609 43.0995 14.9873C43.3278 14.6136 43.442 14.2063 43.442 13.7652V12.3562C43.3538 12.4289 43.2033 12.4963 42.9905 12.5586C42.7829 12.6209 42.5494 12.6754 42.2899 12.7221C42.0304 12.7688 41.7736 12.8103 41.5193 12.8466C41.265 12.8829 41.0444 12.9141 40.8576 12.94C40.4373 12.9971 40.061 13.0905 39.7289 13.2203C39.3968 13.35 39.1347 13.5316 38.9427 13.7652C38.7507 13.9935 38.6547 14.2893 38.6547 14.6526C38.6547 15.1715 38.8441 15.5633 39.2229 15.828C39.6018 16.0926 40.0844 16.225 40.6708 16.225ZM49.0936 22.538C48.7096 22.538 48.3541 22.5068 48.0272 22.4446C47.7055 22.3875 47.4486 22.32 47.2566 22.2422L47.9104 20.047C48.3204 20.1664 48.6863 20.2235 49.008 20.2183C49.3298 20.2131 49.6126 20.1119 49.8565 19.9147C50.1056 19.7227 50.3158 19.4009 50.487 18.9495L50.7283 18.3034L46.3925 6.09769H49.3817L52.1373 15.1274H52.2618L55.0252 6.09769H58.0222L53.2349 19.5021C53.0117 20.1353 52.7159 20.6776 52.3475 21.129C51.979 21.5857 51.5275 21.9334 50.993 22.1721C50.4637 22.416 49.8306 22.538 49.0936 22.538ZM63.5434 18.2878C62.3447 18.2878 61.3094 18.0387 60.4375 17.5405C59.5709 17.0371 58.904 16.3262 58.437 15.4076C57.9699 14.4839 57.7364 13.3967 57.7364 12.146C57.7364 10.9161 57.9699 9.83671 58.437 8.90779C58.9092 7.97369 59.5683 7.24716 60.4142 6.72821C61.2601 6.20407 62.2538 5.942 63.3955 5.942C64.1324 5.942 64.8278 6.06136 65.4817 6.30008C66.1408 6.5336 66.722 6.89687 67.2254 7.38987C67.7339 7.88287 68.1335 8.5108 68.4242 9.27365C68.7148 10.0313 68.8601 10.9343 68.8601 11.9826V12.8466H59.0597V10.9473H66.1589C66.1538 10.4076 66.037 9.92753 65.8086 9.50718C65.5803 9.08164 65.2612 8.74692 64.8512 8.50301C64.4464 8.25911 63.9742 8.13716 63.4345 8.13716C62.8584 8.13716 62.3524 8.27727 61.9165 8.5575C61.4806 8.83255 61.1407 9.19581 60.8968 9.6473C60.6581 10.0936 60.5361 10.584 60.5309 11.1185V12.7766C60.5309 13.4719 60.6581 14.0687 60.9124 14.5669C61.1667 15.0599 61.5221 15.4388 61.9788 15.7034C62.4355 15.9629 62.97 16.0926 63.5824 16.0926C63.9923 16.0926 64.3634 16.0356 64.6955 15.9214C65.0276 15.802 65.3156 15.6282 65.5596 15.3998C65.8035 15.1715 65.9877 14.8887 66.1122 14.5514L68.7433 14.8472C68.5772 15.5426 68.2607 16.1497 67.7936 16.6687C67.3318 17.1824 66.7402 17.582 66.0188 17.8674C65.2975 18.1477 64.4724 18.2878 63.5434 18.2878ZM69.9288 18.0543V6.09769H72.661V8.09045H72.7856C73.0035 7.40025 73.3772 6.86833 73.9065 6.49468C74.441 6.11585 75.0508 5.92643 75.7358 5.92643C75.8915 5.92643 76.0653 5.93422 76.2573 5.94979C76.4545 5.96016 76.618 5.97833 76.7478 6.00428V8.59642C76.6284 8.55491 76.439 8.51858 76.1795 8.48745C75.9252 8.45112 75.6787 8.43296 75.44 8.43296C74.9262 8.43296 74.4644 8.54453 74.0544 8.76768C73.6496 8.98564 73.3305 9.28922 73.0969 9.67843C72.8634 10.0676 72.7467 10.5165 72.7467 11.0251V18.0543H69.9288ZM75.487 4.53306V2.11216H88.2065V4.53306H83.279V18.0543H80.4144V4.53306H75.487ZM91.0324 18.2956C90.2748 18.2956 89.5924 18.1607 88.9852 17.8908C88.3832 17.6158 87.9058 17.211 87.5529 16.6765C87.2052 16.1419 87.0313 15.4829 87.0313 14.6993C87.0313 14.0246 87.1559 13.4668 87.405 13.0257C87.6541 12.5845 87.994 12.2317 88.4247 11.967C88.8555 11.7023 89.3407 11.5025 89.8804 11.3676C90.4253 11.2275 90.9883 11.1263 91.5696 11.064C92.2701 10.9914 92.8384 10.9265 93.2743 10.8694C93.7102 10.8071 94.0268 10.7137 94.224 10.5892C94.4264 10.4595 94.5276 10.2597 94.5276 9.9898V9.9431C94.5276 9.35669 94.3537 8.90261 94.006 8.58086C93.6583 8.25911 93.1575 8.09823 92.5037 8.09823C91.8135 8.09823 91.266 8.24873 90.8612 8.54972C90.4616 8.85071 90.1917 9.20619 90.0516 9.61616L87.4206 9.24252C87.6281 8.51599 87.9706 7.90882 88.4481 7.42101C88.9255 6.928 89.5093 6.55955 90.1995 6.31565C90.8897 6.06655 91.6526 5.942 92.4881 5.942C93.0641 5.942 93.6376 6.00947 94.2084 6.14439C94.7793 6.27932 95.3008 6.50247 95.773 6.81384C96.2453 7.12002 96.6241 7.53777 96.9095 8.0671C97.2001 8.59643 97.3455 9.25808 97.3455 10.0521V18.0543H94.6365V16.4118H94.5431C94.3719 16.7439 94.1306 17.0553 93.8192 17.3459C93.513 17.6313 93.1264 17.8623 92.6593 18.0387C92.1975 18.21 91.6552 18.2956 91.0324 18.2956ZM91.7642 16.225C92.3298 16.225 92.8202 16.1134 93.2354 15.8903C93.6505 15.6619 93.9697 15.3609 94.1928 14.9873C94.4212 14.6136 94.5353 14.2063 94.5353 13.7652V12.3562C94.4471 12.4289 94.2966 12.4963 94.0839 12.5586C93.8763 12.6209 93.6428 12.6754 93.3833 12.7221C93.1238 12.7688 92.8669 12.8103 92.6126 12.8466C92.3584 12.8829 92.1378 12.9141 91.951 12.94C91.5306 12.9971 91.1544 13.0905 90.8223 13.2203C90.4901 13.35 90.2281 13.5316 90.0361 13.7652C89.844 13.9935 89.748 14.2893 89.748 14.6526C89.748 15.1715 89.9375 15.5633 90.3163 15.828C90.6951 16.0926 91.1777 16.225 91.7642 16.225ZM104.079 18.2878C102.911 18.2878 101.9 18.0309 101.043 17.5172C100.187 17.0034 99.5228 16.2847 99.0505 15.3609C98.5835 14.4372 98.3499 13.3578 98.3499 12.1227C98.3499 10.8876 98.5835 9.80558 99.0505 8.87666C99.5228 7.94774 100.187 7.2264 101.043 6.71264C101.9 6.19888 102.911 5.942 104.079 5.942C105.247 5.942 106.259 6.19888 107.115 6.71264C107.971 7.2264 108.633 7.94774 109.1 8.87666C109.572 9.80558 109.808 10.8876 109.808 12.1227C109.808 13.3578 109.572 14.4372 109.1 15.3609C108.633 16.2847 107.971 17.0034 107.115 17.5172C106.259 18.0309 105.247 18.2878 104.079 18.2878ZM104.095 16.0304C104.728 16.0304 105.257 15.8565 105.683 15.5088C106.108 15.1559 106.425 14.6837 106.632 14.0921C106.845 13.5005 106.952 12.8414 106.952 12.1149C106.952 11.3832 106.845 10.7215 106.632 10.1299C106.425 9.53313 106.108 9.05829 105.683 8.7054C105.257 8.35252 104.728 8.17608 104.095 8.17608C103.446 8.17608 102.906 8.35252 102.476 8.7054C102.05 9.05829 101.731 9.53313 101.518 10.1299C101.311 10.7215 101.207 11.3832 101.207 12.1149C101.207 12.8414 101.311 13.5005 101.518 14.0921C101.731 14.6837 102.05 15.1559 102.476 15.5088C102.906 15.8565 103.446 16.0304 104.095 16.0304Z" fill="#FAFAFA"/>
<defs>
<clipPath id="clip0_61_35">
<rect width="17.8611" height="21.1085" fill="white"/>
</clipPath>
</defs>
</svg>
